<svg xmlns="http://www.w3.org/2000/svg" viewBox="0 0 900 520" role="img" aria-labelledby="title desc">
  <title id="title">Mountain path at sunrise</title>
  <desc id="desc">A rugged trail leading toward bright mountains, symbolizing the future.</desc>
  <defs>
    <linearGradient id="sky" x1="0" x2="1" y1="0" y2="1">
      <stop offset="0" stop-color="#0a0d10"/>
      <stop offset="0.46" stop-color="#36454a"/>
      <stop offset="1" stop-color="#0b0b0b"/>
    </linearGradient>
    <radialGradient id="sun" cx="55%" cy="24%" r="32%">
      <stop offset="0" stop-color="#ffd300"/>
      <stop offset="0.24" stop-color="#ffd300" stop-opacity=".6"/>
      <stop offset="1" stop-color="#ffd300" stop-opacity="0"/>
    </radialGradient>
  </defs>
  <rect width="900" height="520" fill="url(#sky)"/>
  <rect width="900" height="520" fill="url(#sun)"/>
  <path d="M0 348 112 226l83 64 118-157 120 166 78-88 90 112 104-162 195 220v139H0Z" fill="#111518"/>
  <path d="M0 388 147 276l87 76 84-98 88 108 98-137 93 113 97-57 206 130v109H0Z" fill="#20282a"/>
  <path d="M380 520 452 315l66 205Z" fill="#ffd300" opacity=".92"/>
  <path d="M452 315 286 520h-96l220-205Z" fill="#0f1011"/>
  <path d="M452 315 676 520h-106Z" fill="#17191a"/>
  <path d="M39 90c85 16 143 15 213-5M645 92c75-16 144-15 213 4" fill="none" stroke="#f2f0eb" stroke-opacity=".25" stroke-width="10" stroke-linecap="round"/>
  <path d="m677 71 33 12-28 22 47-6" fill="none" stroke="#ffd300" stroke-width="12" stroke-linecap="round" stroke-linejoin="round"/>
  <path d="M0 0h900v520H0z" fill="#000" opacity=".12"/>
</svg>
