<svg xmlns="http://www.w3.org/2000/svg" viewBox="0 0 900 520" role="img" aria-labelledby="title desc">
  <title id="title">Open ledger and generous hands</title>
  <desc id="desc">A bold ledger, coin, and hands, symbolizing prayer over finances.</desc>
  <defs>
    <linearGradient id="bg" x1="0" x2="1" y1="0" y2="1">
      <stop offset="0" stop-color="#101316"/>
      <stop offset=".5" stop-color="#555044"/>
      <stop offset="1" stop-color="#050606"/>
    </linearGradient>
    <radialGradient id="glow" cx="36%" cy="28%" r="50%">
      <stop offset="0" stop-color="#ffd300" stop-opacity=".48"/>
      <stop offset="1" stop-color="#ffd300" stop-opacity="0"/>
    </radialGradient>
  </defs>
  <rect width="900" height="520" fill="url(#bg)"/>
  <rect width="900" height="520" fill="url(#glow)"/>
  <path d="M170 170h278c47 0 82 36 82 82v176H252c-45 0-82-36-82-82Z" fill="#111" stroke="#f2f0eb" stroke-opacity=".22" stroke-width="8"/>
  <path d="M530 252c0-46 36-82 82-82h118v258H530Z" fill="#1b1d1d" stroke="#f2f0eb" stroke-opacity=".18" stroke-width="8"/>
  <path d="M242 232h198M242 284h206M242 337h153M593 238h90M593 295h92M593 352h72" stroke="#f2f0eb" stroke-opacity=".35" stroke-width="12" stroke-linecap="round"/>
  <circle cx="487" cy="249" r="82" fill="#ffd300"/>
  <path d="M487 195v111M451 224c12-19 77-25 78 12 0 34-75 22-75 55 0 36 65 31 83 11" fill="none" stroke="#050505" stroke-width="23" stroke-linecap="round"/>
  <path d="M62 397c109-63 197-70 288-20M573 392c90-43 176-43 265 2" fill="none" stroke="#ffd300" stroke-width="21" stroke-linecap="round" opacity=".8"/>
  <path d="M0 0h900v520H0z" fill="#000" opacity=".18"/>
</svg>
