<?xml version="1.0" encoding="UTF-8"?>
<svg id="_ëîé_1" data-name="‘ëîé_1" xmlns="http://www.w3.org/2000/svg" viewBox="0 0 2220.53 467.13">
  <defs>
    <style>
      .cls-1 {
        fill: #c4d8e3;
      }

      .cls-2 {
        fill: #1b303b;
      }

      .cls-3 {
        fill: #4d6d80;
      }
    </style>
  </defs>
  <g>
    <g>
      <path class="cls-1" d="M1588.17,31.63h-9.72V9.35h-2.71V0h-13.09v50.09h-90.54v277.18h-103.07v-109.81h-155.2v201.66h88.53v27.53h173.92v-10.67h142.71V50.09h-30.84v-18.45ZM1486.81,407.61h-7.41v-2.91h7.41v2.91ZM1486.81,396.34h-7.41v-2.91h7.41v2.91ZM1486.81,385.07h-7.41v-2.91h7.41v2.91ZM1486.81,373.8h-7.41v-2.91h7.41v2.91ZM1486.81,362.53h-7.41v-2.91h7.41v2.91ZM1486.81,351.26h-7.41v-2.91h7.41v2.91ZM1486.81,339.99h-7.41v-2.91h7.41v2.91ZM1486.81,328.72h-7.41v-2.91h7.41v2.91ZM1486.81,317.45h-7.41v-2.91h7.41v2.91ZM1486.81,306.18h-7.41v-2.91h7.41v2.91ZM1486.81,294.91h-7.41v-2.91h7.41v2.91ZM1486.81,283.64h-7.41v-2.91h7.41v2.91ZM1486.81,272.37h-7.41v-2.91h7.41v2.91ZM1486.81,261.1h-7.41v-2.91h7.41v2.91ZM1486.81,249.83h-7.41v-2.91h7.41v2.91ZM1486.81,238.56h-7.41v-2.91h7.41v2.91ZM1486.81,227.29h-7.41v-2.91h7.41v2.91ZM1486.81,216.02h-7.41v-2.91h7.41v2.91ZM1486.81,204.75h-7.41v-2.91h7.41v2.91ZM1486.81,193.48h-7.41v-2.91h7.41v2.91ZM1486.81,182.21h-7.41v-2.91h7.41v2.91ZM1486.81,170.94h-7.41v-2.91h7.41v2.91ZM1486.81,159.67h-7.41v-2.91h7.41v2.91ZM1486.81,148.41h-7.41v-2.91h7.41v2.91ZM1486.81,137.14h-7.41v-2.91h7.41v2.91ZM1486.81,125.87h-7.41v-2.91h7.41v2.91ZM1486.81,114.6h-7.41v-2.91h7.41v2.91ZM1486.81,103.33h-7.41v-2.91h7.41v2.91ZM1486.81,92.06h-7.41v-2.91h7.41v2.91ZM1486.81,80.79h-7.41v-2.91h7.41v2.91ZM1497.1,407.61h-7.41v-2.91h7.41v2.91ZM1497.1,396.34h-7.41v-2.91h7.41v2.91ZM1497.1,385.07h-7.41v-2.91h7.41v2.91ZM1497.1,373.8h-7.41v-2.91h7.41v2.91ZM1497.1,362.53h-7.41v-2.91h7.41v2.91ZM1497.1,351.26h-7.41v-2.91h7.41v2.91ZM1497.1,339.99h-7.41v-2.91h7.41v2.91ZM1497.1,328.72h-7.41v-2.91h7.41v2.91ZM1497.1,317.45h-7.41v-2.91h7.41v2.91ZM1497.1,306.18h-7.41v-2.91h7.41v2.91ZM1497.1,294.91h-7.41v-2.91h7.41v2.91ZM1497.1,283.64h-7.41v-2.91h7.41v2.91ZM1497.1,272.37h-7.41v-2.91h7.41v2.91ZM1497.1,261.1h-7.41v-2.91h7.41v2.91ZM1497.1,249.83h-7.41v-2.91h7.41v2.91ZM1497.1,238.56h-7.41v-2.91h7.41v2.91ZM1497.1,227.29h-7.41v-2.91h7.41v2.91ZM1497.1,216.02h-7.41v-2.91h7.41v2.91ZM1497.1,204.75h-7.41v-2.91h7.41v2.91ZM1497.1,193.48h-7.41v-2.91h7.41v2.91ZM1497.1,182.21h-7.41v-2.91h7.41v2.91ZM1497.1,170.94h-7.41v-2.91h7.41v2.91ZM1497.1,159.67h-7.41v-2.91h7.41v2.91ZM1497.1,148.41h-7.41v-2.91h7.41v2.91ZM1497.1,137.14h-7.41v-2.91h7.41v2.91ZM1497.1,125.87h-7.41v-2.91h7.41v2.91ZM1497.1,114.6h-7.41v-2.91h7.41v2.91ZM1497.1,103.33h-7.41v-2.91h7.41v2.91ZM1497.1,92.06h-7.41v-2.91h7.41v2.91ZM1497.1,80.79h-7.41v-2.91h7.41v2.91ZM1507.4,407.61h-7.41v-2.91h7.41v2.91ZM1507.4,396.34h-7.41v-2.91h7.41v2.91ZM1507.4,385.07h-7.41v-2.91h7.41v2.91ZM1507.4,373.8h-7.41v-2.91h7.41v2.91ZM1507.4,362.53h-7.41v-2.91h7.41v2.91ZM1507.4,351.26h-7.41v-2.91h7.41v2.91ZM1507.4,339.99h-7.41v-2.91h7.41v2.91ZM1507.4,328.72h-7.41v-2.91h7.41v2.91ZM1507.4,317.45h-7.41v-2.91h7.41v2.91ZM1507.4,306.18h-7.41v-2.91h7.41v2.91ZM1507.4,294.91h-7.41v-2.91h7.41v2.91ZM1507.4,283.64h-7.41v-2.91h7.41v2.91ZM1507.4,272.37h-7.41v-2.91h7.41v2.91ZM1507.4,261.1h-7.41v-2.91h7.41v2.91ZM1507.4,249.83h-7.41v-2.91h7.41v2.91ZM1507.4,238.56h-7.41v-2.91h7.41v2.91ZM1507.4,227.29h-7.41v-2.91h7.41v2.91ZM1507.4,216.02h-7.41v-2.91h7.41v2.91ZM1507.4,204.75h-7.41v-2.91h7.41v2.91ZM1507.4,193.48h-7.41v-2.91h7.41v2.91ZM1507.4,182.21h-7.41v-2.91h7.41v2.91ZM1507.4,170.94h-7.41v-2.91h7.41v2.91ZM1507.4,159.67h-7.41v-2.91h7.41v2.91ZM1507.4,148.41h-7.41v-2.91h7.41v2.91ZM1507.4,137.14h-7.41v-2.91h7.41v2.91ZM1507.4,125.87h-7.41v-2.91h7.41v2.91ZM1507.4,114.6h-7.41v-2.91h7.41v2.91ZM1507.4,103.33h-7.41v-2.91h7.41v2.91ZM1507.4,92.06h-7.41v-2.91h7.41v2.91ZM1507.4,80.79h-7.41v-2.91h7.41v2.91ZM1517.68,407.61h-7.41v-2.91h7.41v2.91ZM1517.68,396.34h-7.41v-2.91h7.41v2.91ZM1517.68,385.07h-7.41v-2.91h7.41v2.91ZM1517.68,373.8h-7.41v-2.91h7.41v2.91ZM1517.68,362.53h-7.41v-2.91h7.41v2.91ZM1517.68,351.26h-7.41v-2.91h7.41v2.91ZM1517.68,339.99h-7.41v-2.91h7.41v2.91ZM1517.68,328.72h-7.41v-2.91h7.41v2.91ZM1517.68,317.45h-7.41v-2.91h7.41v2.91ZM1517.68,306.18h-7.41v-2.91h7.41v2.91ZM1517.68,294.91h-7.41v-2.91h7.41v2.91ZM1517.68,283.64h-7.41v-2.91h7.41v2.91ZM1517.68,272.37h-7.41v-2.91h7.41v2.91ZM1517.68,261.1h-7.41v-2.91h7.41v2.91ZM1517.68,249.83h-7.41v-2.91h7.41v2.91ZM1517.68,238.56h-7.41v-2.91h7.41v2.91ZM1517.68,227.29h-7.41v-2.91h7.41v2.91ZM1517.68,216.02h-7.41v-2.91h7.41v2.91ZM1517.68,204.75h-7.41v-2.91h7.41v2.91ZM1517.68,193.48h-7.41v-2.91h7.41v2.91ZM1517.68,182.21h-7.41v-2.91h7.41v2.91ZM1517.68,170.94h-7.41v-2.91h7.41v2.91ZM1517.68,159.67h-7.41v-2.91h7.41v2.91ZM1517.68,148.41h-7.41v-2.91h7.41v2.91ZM1517.68,137.14h-7.41v-2.91h7.41v2.91ZM1517.68,125.87h-7.41v-2.91h7.41v2.91ZM1517.68,114.6h-7.41v-2.91h7.41v2.91ZM1517.68,103.33h-7.41v-2.91h7.41v2.91ZM1517.68,92.06h-7.41v-2.91h7.41v2.91ZM1517.68,80.79h-7.41v-2.91h7.41v2.91ZM1517.68,68.54h-38.28v-3.89h38.28v3.89ZM1533.83,407.61h-7.41v-2.91h7.41v2.91ZM1533.83,396.34h-7.41v-2.91h7.41v2.91ZM1533.83,385.07h-7.41v-2.91h7.41v2.91ZM1533.83,373.8h-7.41v-2.91h7.41v2.91ZM1533.83,362.53h-7.41v-2.91h7.41v2.91ZM1533.83,351.26h-7.41v-2.91h7.41v2.91ZM1533.83,339.99h-7.41v-2.91h7.41v2.91ZM1533.83,328.72h-7.41v-2.91h7.41v2.91ZM1533.83,317.45h-7.41v-2.91h7.41v2.91ZM1533.83,306.18h-7.41v-2.91h7.41v2.91ZM1533.83,294.91h-7.41v-2.91h7.41v2.91ZM1533.83,283.64h-7.41v-2.91h7.41v2.91ZM1533.83,272.37h-7.41v-2.91h7.41v2.91ZM1533.83,261.1h-7.41v-2.91h7.41v2.91ZM1533.83,249.83h-7.41v-2.91h7.41v2.91ZM1533.83,238.56h-7.41v-2.91h7.41v2.91ZM1533.83,227.29h-7.41v-2.91h7.41v2.91ZM1533.83,216.02h-7.41v-2.91h7.41v2.91ZM1533.83,204.75h-7.41v-2.91h7.41v2.91ZM1533.83,193.48h-7.41v-2.91h7.41v2.91ZM1533.83,182.21h-7.41v-2.91h7.41v2.91ZM1533.83,170.94h-7.41v-2.91h7.41v2.91ZM1533.83,159.67h-7.41v-2.91h7.41v2.91ZM1533.83,148.41h-7.41v-2.91h7.41v2.91ZM1533.83,137.14h-7.41v-2.91h7.41v2.91ZM1533.83,125.87h-7.41v-2.91h7.41v2.91ZM1533.83,114.6h-7.41v-2.91h7.41v2.91ZM1533.83,103.33h-7.41v-2.91h7.41v2.91ZM1533.83,92.06h-7.41v-2.91h7.41v2.91ZM1533.83,80.79h-7.41v-2.91h7.41v2.91ZM1544.12,407.61h-7.41v-2.91h7.41v2.91ZM1544.12,396.34h-7.41v-2.91h7.41v2.91ZM1544.12,385.07h-7.41v-2.91h7.41v2.91ZM1544.12,373.8h-7.41v-2.91h7.41v2.91ZM1544.12,362.53h-7.41v-2.91h7.41v2.91ZM1544.12,351.26h-7.41v-2.91h7.41v2.91ZM1544.12,339.99h-7.41v-2.91h7.41v2.91ZM1544.12,328.72h-7.41v-2.91h7.41v2.91ZM1544.12,317.45h-7.41v-2.91h7.41v2.91ZM1544.12,306.18h-7.41v-2.91h7.41v2.91ZM1544.12,294.91h-7.41v-2.91h7.41v2.91ZM1544.12,283.64h-7.41v-2.91h7.41v2.91ZM1544.12,272.37h-7.41v-2.91h7.41v2.91ZM1544.12,261.1h-7.41v-2.91h7.41v2.91ZM1544.12,249.83h-7.41v-2.91h7.41v2.91ZM1544.12,238.56h-7.41v-2.91h7.41v2.91ZM1544.12,227.29h-7.41v-2.91h7.41v2.91ZM1544.12,216.02h-7.41v-2.91h7.41v2.91ZM1544.12,204.75h-7.41v-2.91h7.41v2.91ZM1544.12,193.48h-7.41v-2.91h7.41v2.91ZM1544.12,182.21h-7.41v-2.91h7.41v2.91ZM1544.12,170.94h-7.41v-2.91h7.41v2.91ZM1544.12,159.67h-7.41v-2.91h7.41v2.91ZM1544.12,148.41h-7.41v-2.91h7.41v2.91ZM1544.12,137.14h-7.41v-2.91h7.41v2.91ZM1544.12,125.87h-7.41v-2.91h7.41v2.91ZM1544.12,114.6h-7.41v-2.91h7.41v2.91ZM1544.12,103.33h-7.41v-2.91h7.41v2.91ZM1544.12,92.06h-7.41v-2.91h7.41v2.91ZM1544.12,80.79h-7.41v-2.91h7.41v2.91ZM1554.42,407.61h-7.41v-2.91h7.41v2.91ZM1554.42,396.34h-7.41v-2.91h7.41v2.91ZM1554.42,385.07h-7.41v-2.91h7.41v2.91ZM1554.42,373.8h-7.41v-2.91h7.41v2.91ZM1554.42,362.53h-7.41v-2.91h7.41v2.91ZM1554.42,351.26h-7.41v-2.91h7.41v2.91ZM1554.42,339.99h-7.41v-2.91h7.41v2.91ZM1554.42,328.72h-7.41v-2.91h7.41v2.91ZM1554.42,317.45h-7.41v-2.91h7.41v2.91ZM1554.42,306.18h-7.41v-2.91h7.41v2.91ZM1554.42,294.91h-7.41v-2.91h7.41v2.91ZM1554.42,283.64h-7.41v-2.91h7.41v2.91ZM1554.42,272.37h-7.41v-2.91h7.41v2.91ZM1554.42,261.1h-7.41v-2.91h7.41v2.91ZM1554.42,249.83h-7.41v-2.91h7.41v2.91ZM1554.42,238.56h-7.41v-2.91h7.41v2.91ZM1554.42,227.29h-7.41v-2.91h7.41v2.91ZM1554.42,216.02h-7.41v-2.91h7.41v2.91ZM1554.42,204.75h-7.41v-2.91h7.41v2.91ZM1554.42,193.48h-7.41v-2.91h7.41v2.91ZM1554.42,182.21h-7.41v-2.91h7.41v2.91ZM1554.42,170.94h-7.41v-2.91h7.41v2.91ZM1554.42,159.67h-7.41v-2.91h7.41v2.91ZM1554.42,148.41h-7.41v-2.91h7.41v2.91ZM1554.42,137.14h-7.41v-2.91h7.41v2.91ZM1554.42,125.87h-7.41v-2.91h7.41v2.91ZM1554.42,114.6h-7.41v-2.91h7.41v2.91ZM1554.42,103.33h-7.41v-2.91h7.41v2.91ZM1554.42,92.06h-7.41v-2.91h7.41v2.91ZM1554.42,80.79h-7.41v-2.91h7.41v2.91ZM1562.66,407.61h-5.35v-2.91h5.35v2.91ZM1562.66,396.34h-5.35v-2.91h5.35v2.91ZM1562.66,385.07h-5.35v-2.91h5.35v2.91ZM1562.66,373.8h-5.35v-2.91h5.35v2.91ZM1562.66,362.53h-5.35v-2.91h5.35v2.91ZM1562.66,351.26h-5.35v-2.91h5.35v2.91ZM1562.66,339.99h-5.35v-2.91h5.35v2.91ZM1562.66,328.72h-5.35v-2.91h5.35v2.91ZM1562.66,317.45h-5.35v-2.91h5.35v2.91ZM1562.66,306.18h-5.35v-2.91h5.35v2.91ZM1562.66,294.91h-5.35v-2.91h5.35v2.91ZM1562.66,283.64h-5.35v-2.91h5.35v2.91ZM1562.66,272.37h-5.35v-2.91h5.35v2.91ZM1562.66,261.1h-5.35v-2.91h5.35v2.91ZM1562.66,249.83h-5.35v-2.91h5.35v2.91ZM1562.66,238.56h-5.35v-2.91h5.35v2.91ZM1562.66,227.29h-5.35v-2.91h5.35v2.91ZM1562.66,216.02h-5.35v-2.91h5.35v2.91ZM1562.66,204.75h-5.35v-2.91h5.35v2.91ZM1562.66,193.48h-5.35v-2.91h5.35v2.91ZM1562.66,182.21h-5.35v-2.91h5.35v2.91ZM1562.66,170.94h-5.35v-2.91h5.35v2.91ZM1562.66,159.67h-5.35v-2.91h5.35v2.91ZM1562.66,148.41h-5.35v-2.91h5.35v2.91ZM1562.66,137.14h-5.35v-2.91h5.35v2.91ZM1562.66,125.87h-5.35v-2.91h5.35v2.91ZM1562.66,114.6h-5.35v-2.91h5.35v2.91ZM1562.66,103.33h-5.35v-2.91h5.35v2.91ZM1562.66,92.06h-5.35v-2.91h5.35v2.91ZM1562.66,80.79h-5.35v-2.91h5.35v2.91ZM1562.66,68.54h-36.23v-3.89h36.23v3.89ZM1591.14,407.61h-2.97v-2.91h2.97v2.91ZM1591.14,396.34h-2.97v-2.91h2.97v2.91ZM1591.14,385.07h-2.97v-2.91h2.97v2.91ZM1591.14,373.8h-2.97v-2.91h2.97v2.91ZM1591.14,362.53h-2.97v-2.91h2.97v2.91ZM1591.14,351.26h-2.97v-2.91h2.97v2.91ZM1591.14,339.99h-2.97v-2.91h2.97v2.91ZM1591.14,328.72h-2.97v-2.91h2.97v2.91ZM1591.14,317.45h-2.97v-2.91h2.97v2.91ZM1591.14,306.18h-2.97v-2.91h2.97v2.91ZM1591.14,294.91h-2.97v-2.91h2.97v2.91ZM1591.14,283.64h-2.97v-2.91h2.97v2.91ZM1591.14,272.37h-2.97v-2.91h2.97v2.91ZM1591.14,261.1h-2.97v-2.91h2.97v2.91ZM1591.14,249.83h-2.97v-2.91h2.97v2.91ZM1591.14,238.56h-2.97v-2.91h2.97v2.91ZM1591.14,227.29h-2.97v-2.91h2.97v2.91ZM1591.14,216.02h-2.97v-2.91h2.97v2.91ZM1591.14,204.75h-2.97v-2.91h2.97v2.91ZM1591.14,193.48h-2.97v-2.91h2.97v2.91ZM1591.14,182.21h-2.97v-2.91h2.97v2.91ZM1591.14,170.94h-2.97v-2.91h2.97v2.91ZM1591.14,159.67h-2.97v-2.91h2.97v2.91ZM1591.14,148.41h-2.97v-2.91h2.97v2.91ZM1591.14,137.14h-2.97v-2.91h2.97v2.91ZM1591.14,125.87h-2.97v-2.91h2.97v2.91ZM1591.14,114.6h-2.97v-2.91h2.97v2.91ZM1591.14,103.33h-2.97v-2.91h2.97v2.91ZM1591.14,92.06h-2.97v-2.91h2.97v2.91ZM1591.14,80.79h-2.97v-2.91h2.97v2.91ZM1601.44,407.61h-7.41v-2.91h7.41v2.91ZM1601.44,396.34h-7.41v-2.91h7.41v2.91ZM1601.44,385.07h-7.41v-2.91h7.41v2.91ZM1601.44,373.8h-7.41v-2.91h7.41v2.91ZM1601.44,362.53h-7.41v-2.91h7.41v2.91ZM1601.44,351.26h-7.41v-2.91h7.41v2.91ZM1601.44,339.99h-7.41v-2.91h7.41v2.91ZM1601.44,328.72h-7.41v-2.91h7.41v2.91ZM1601.44,317.45h-7.41v-2.91h7.41v2.91ZM1601.44,306.18h-7.41v-2.91h7.41v2.91ZM1601.44,294.91h-7.41v-2.91h7.41v2.91ZM1601.44,283.64h-7.41v-2.91h7.41v2.91ZM1601.44,272.37h-7.41v-2.91h7.41v2.91ZM1601.44,261.1h-7.41v-2.91h7.41v2.91ZM1601.44,249.83h-7.41v-2.91h7.41v2.91ZM1601.44,238.56h-7.41v-2.91h7.41v2.91ZM1601.44,227.29h-7.41v-2.91h7.41v2.91ZM1601.44,216.02h-7.41v-2.91h7.41v2.91ZM1601.44,204.75h-7.41v-2.91h7.41v2.91ZM1601.44,193.48h-7.41v-2.91h7.41v2.91ZM1601.44,182.21h-7.41v-2.91h7.41v2.91ZM1601.44,170.94h-7.41v-2.91h7.41v2.91ZM1601.44,159.67h-7.41v-2.91h7.41v2.91ZM1601.44,148.41h-7.41v-2.91h7.41v2.91ZM1601.44,137.14h-7.41v-2.91h7.41v2.91ZM1601.44,125.87h-7.41v-2.91h7.41v2.91ZM1601.44,114.6h-7.41v-2.91h7.41v2.91ZM1601.44,103.33h-7.41v-2.91h7.41v2.91ZM1601.44,92.06h-7.41v-2.91h7.41v2.91ZM1601.44,80.79h-7.41v-2.91h7.41v2.91ZM1611.73,407.61h-7.41v-2.91h7.41v2.91ZM1611.73,396.34h-7.41v-2.91h7.41v2.91ZM1611.73,385.07h-7.41v-2.91h7.41v2.91ZM1611.73,373.8h-7.41v-2.91h7.41v2.91ZM1611.73,362.53h-7.41v-2.91h7.41v2.91ZM1611.73,351.26h-7.41v-2.91h7.41v2.91ZM1611.73,339.99h-7.41v-2.91h7.41v2.91ZM1611.73,328.72h-7.41v-2.91h7.41v2.91ZM1611.73,317.45h-7.41v-2.91h7.41v2.91ZM1611.73,306.18h-7.41v-2.91h7.41v2.91ZM1611.73,294.91h-7.41v-2.91h7.41v2.91ZM1611.73,283.64h-7.41v-2.91h7.41v2.91ZM1611.73,272.37h-7.41v-2.91h7.41v2.91ZM1611.73,261.1h-7.41v-2.91h7.41v2.91ZM1611.73,249.83h-7.41v-2.91h7.41v2.91ZM1611.73,238.56h-7.41v-2.91h7.41v2.91ZM1611.73,227.29h-7.41v-2.91h7.41v2.91ZM1611.73,216.02h-7.41v-2.91h7.41v2.91ZM1611.73,204.75h-7.41v-2.91h7.41v2.91ZM1611.73,193.48h-7.41v-2.91h7.41v2.91ZM1611.73,182.21h-7.41v-2.91h7.41v2.91ZM1611.73,170.94h-7.41v-2.91h7.41v2.91ZM1611.73,159.67h-7.41v-2.91h7.41v2.91ZM1611.73,148.41h-7.41v-2.91h7.41v2.91ZM1611.73,137.14h-7.41v-2.91h7.41v2.91ZM1611.73,125.87h-7.41v-2.91h7.41v2.91ZM1611.73,114.6h-7.41v-2.91h7.41v2.91ZM1611.73,103.33h-7.41v-2.91h7.41v2.91ZM1611.73,92.06h-7.41v-2.91h7.41v2.91ZM1611.73,80.79h-7.41v-2.91h7.41v2.91ZM1611.73,64.66v3.89h-23.55v-3.89h23.55Z"/>
      <path class="cls-1" d="M788.5,78.99h-36.11v-40.85h-12.47v18.35h-23.64v22.5h-72.23v272.34h-18.95v84.65h182.35v-84.65h-18.95V78.99ZM674.83,96.9h-25.46v-8.44h25.46v8.44ZM710.94,96.9h-25.46v-8.44h25.46v8.44ZM783.17,96.9h-25.46v-8.44h25.46v8.44Z"/>
      <path class="cls-1" d="M1063.04,386.35h-30.79v-61.46h-10.26v-13.48h-10.9v-141.44h-4.64v-54.04h-11.25v-21.34h-3.71v-8.7h-17.51v-2.72l-1.97-1.68h-.42v-5.86h.07v-10.84l-1.74-2.26h-2.78v-2.49h-1.37l-.14-22.34c1.48-.55,3.14.12,5.45.48,2.49.41,7.13,2.44,6.38,0-.75-2.44.81-6.32-.87-6.03-1.68.29-4.64.29-6.44-1.16-1.46-1.17-3.76-1.39-4.57-1.44l-.02-2.18c0-.14-.13-.27-.28-.28-.15,0-.28.13-.28.28l-.2,32.67h-1.37v2.49h-2.78l-1.74,2.26v10.84h.07v5.86h-.42l-1.97,1.68v2.72h-17.51v8.7h-3.71v21.34h-11.25v54.04h-4.64v141.44h-10.9v13.48h-10.26v61.46h-30.79v5.86h-1.83v43.77h199.16v-43.77h-1.83v-5.86ZM882.46,433.72h-2.64v-14.29h2.64v14.29ZM882.46,413.8h-2.64v-14.29h2.64v14.29ZM889.62,433.72h-5.29v-14.29h5.29v14.29ZM889.62,413.8h-5.29v-14.29h5.29v14.29ZM894.13,433.72h-2.65v-14.29h2.65v14.29ZM894.13,413.8h-2.65v-14.29h2.65v14.29ZM912.67,319.41h4.46v6.81h-4.46v-6.81ZM912.67,333.56h4.46v6.81h-4.46v-6.81ZM912.67,347.71h4.46v6.81h-4.46v-6.81ZM912.67,361.85h4.46v6.81h-4.46v-6.81ZM912.67,376h4.46v6.81h-4.46v-6.81ZM903.77,333.56h4.46v6.81h-4.46v-6.81ZM903.77,347.71h4.46v6.81h-4.46v-6.81ZM903.77,361.85h4.46v6.81h-4.46v-6.81ZM903.77,376h4.46v6.81h-4.46v-6.81ZM905.71,433.72h-2.65v-14.29h2.65v14.29ZM905.71,413.8h-2.65v-14.29h2.65v14.29ZM912.86,433.72h-5.29v-14.29h5.29v14.29ZM912.86,413.8h-5.29v-14.29h5.29v14.29ZM917.37,433.72h-2.65v-14.29h2.65v14.29ZM917.37,413.8h-2.65v-14.29h2.65v14.29ZM997.29,121.35h4.46v6.81h-4.46v-6.81ZM997.29,135.5h4.46v6.81h-4.46v-6.81ZM997.29,149.65h4.46v6.81h-4.46v-6.81ZM997.29,163.79h4.46v6.81h-4.46v-6.81ZM997.29,177.94h4.46v6.81h-4.46v-6.81ZM997.29,192.09h4.46v6.81h-4.46v-6.81ZM997.29,206.23h4.46v6.81h-4.46v-6.81ZM997.29,220.38h4.46v6.81h-4.46v-6.81ZM997.29,234.53h4.46v6.81h-4.46v-6.81ZM997.29,248.68h4.46v6.81h-4.46v-6.81ZM997.29,262.82h4.46v6.81h-4.46v-6.81ZM997.29,276.97h4.46v6.81h-4.46v-6.81ZM997.29,291.12h4.46v6.81h-4.46v-6.81ZM997.29,305.26h4.46v6.81h-4.46v-6.81ZM997.29,319.41h4.46v6.81h-4.46v-6.81ZM997.29,333.56h4.46v6.81h-4.46v-6.81ZM997.29,347.71h4.46v6.81h-4.46v-6.81ZM997.29,361.85h4.46v6.81h-4.46v-6.81ZM997.29,376h4.46v6.81h-4.46v-6.81ZM971.95,121.35h4.46v6.81h-4.46v-6.81ZM971.95,135.5h4.46v6.81h-4.46v-6.81ZM971.95,149.65h4.46v6.81h-4.46v-6.81ZM971.95,163.79h4.46v6.81h-4.46v-6.81ZM971.95,177.94h4.46v6.81h-4.46v-6.81ZM971.95,192.09h4.46v6.81h-4.46v-6.81ZM971.95,206.23h4.46v6.81h-4.46v-6.81ZM971.95,220.38h4.46v6.81h-4.46v-6.81ZM971.95,234.53h4.46v6.81h-4.46v-6.81ZM971.95,248.68h4.46v6.81h-4.46v-6.81ZM971.95,262.82h4.46v6.81h-4.46v-6.81ZM971.95,276.97h4.46v6.81h-4.46v-6.81ZM971.95,291.12h4.46v6.81h-4.46v-6.81ZM971.95,305.26h4.46v6.81h-4.46v-6.81ZM971.95,319.41h4.46v6.81h-4.46v-6.81ZM971.95,333.56h4.46v6.81h-4.46v-6.81ZM971.95,347.71h4.46v6.81h-4.46v-6.81ZM971.95,361.85h4.46v6.81h-4.46v-6.81ZM971.95,376h4.46v6.81h-4.46v-6.81ZM967.98,75.63h2.65v5.86h-2.65v-5.86ZM965.62,36.51l-.04-5.93c.57,2.32.31,4.56.04,5.93ZM965.28,66.12c.72,0,1.3.58,1.3,1.3s-.58,1.3-1.3,1.3-1.3-.58-1.3-1.3.58-1.3,1.3-1.3ZM963.55,75.63h3.47v5.86h-3.47v-5.86ZM963.05,97.12h4.46v6.81h-4.46v-6.81ZM963.05,121.35h4.46v6.81h-4.46v-6.81ZM963.05,135.5h4.46v6.81h-4.46v-6.81ZM963.05,149.65h4.46v6.81h-4.46v-6.81ZM963.05,163.79h4.46v6.81h-4.46v-6.81ZM963.05,177.94h4.46v6.81h-4.46v-6.81ZM963.05,192.09h4.46v6.81h-4.46v-6.81ZM963.05,206.23h4.46v6.81h-4.46v-6.81ZM963.05,220.38h4.46v6.81h-4.46v-6.81ZM963.05,234.53h4.46v6.81h-4.46v-6.81ZM963.05,248.68h4.46v6.81h-4.46v-6.81ZM963.05,262.82h4.46v6.81h-4.46v-6.81ZM963.05,276.97h4.46v6.81h-4.46v-6.81ZM963.05,291.12h4.46v6.81h-4.46v-6.81ZM963.05,305.26h4.46v6.81h-4.46v-6.81ZM963.05,319.41h4.46v6.81h-4.46v-6.81ZM963.05,333.56h4.46v6.81h-4.46v-6.81ZM963.05,347.71h4.46v6.81h-4.46v-6.81ZM963.05,361.85h4.46v6.81h-4.46v-6.81ZM963.05,376h4.46v6.81h-4.46v-6.81ZM959.94,75.63h2.64v5.86h-2.64v-5.86ZM954.15,121.35h4.46v6.81h-4.46v-6.81ZM954.15,135.5h4.46v6.81h-4.46v-6.81ZM954.15,149.65h4.46v6.81h-4.46v-6.81ZM954.15,163.79h4.46v6.81h-4.46v-6.81ZM954.15,177.94h4.46v6.81h-4.46v-6.81ZM954.15,192.09h4.46v6.81h-4.46v-6.81ZM954.15,206.23h4.46v6.81h-4.46v-6.81ZM954.15,220.38h4.46v6.81h-4.46v-6.81ZM954.15,234.53h4.46v6.81h-4.46v-6.81ZM954.15,248.68h4.46v6.81h-4.46v-6.81ZM954.15,262.82h4.46v6.81h-4.46v-6.81ZM954.15,276.97h4.46v6.81h-4.46v-6.81ZM954.15,291.12h4.46v6.81h-4.46v-6.81ZM954.15,305.26h4.46v6.81h-4.46v-6.81ZM954.15,319.41h4.46v6.81h-4.46v-6.81ZM954.15,333.56h4.46v6.81h-4.46v-6.81ZM954.15,347.71h4.46v6.81h-4.46v-6.81ZM954.15,361.85h4.46v6.81h-4.46v-6.81ZM954.15,376h4.46v6.81h-4.46v-6.81ZM928.82,121.35h4.46v6.81h-4.46v-6.81ZM928.82,135.5h4.46v6.81h-4.46v-6.81ZM928.82,149.65h4.46v6.81h-4.46v-6.81ZM928.82,163.79h4.46v6.81h-4.46v-6.81ZM928.82,177.94h4.46v6.81h-4.46v-6.81ZM928.82,192.09h4.46v6.81h-4.46v-6.81ZM928.82,206.23h4.46v6.81h-4.46v-6.81ZM928.82,220.38h4.46v6.81h-4.46v-6.81ZM928.82,234.53h4.46v6.81h-4.46v-6.81ZM928.82,248.68h4.46v6.81h-4.46v-6.81ZM928.82,262.82h4.46v6.81h-4.46v-6.81ZM928.82,276.97h4.46v6.81h-4.46v-6.81ZM928.82,291.12h4.46v6.81h-4.46v-6.81ZM928.82,305.26h4.46v6.81h-4.46v-6.81ZM928.82,319.41h4.46v6.81h-4.46v-6.81ZM928.82,333.56h4.46v6.81h-4.46v-6.81ZM928.82,347.71h4.46v6.81h-4.46v-6.81ZM928.82,361.85h4.46v6.81h-4.46v-6.81ZM928.82,376h4.46v6.81h-4.46v-6.81ZM928.95,433.72h-2.65v-14.29h2.65v14.29ZM928.95,413.8h-2.65v-14.29h2.65v14.29ZM936.1,433.72h-5.29v-14.29h5.29v14.29ZM936.1,413.8h-5.29v-14.29h5.29v14.29ZM940.61,433.72h-2.64v-14.29h2.64v14.29ZM940.61,413.8h-2.64v-14.29h2.64v14.29ZM942.18,382.81h-4.46v-6.81h4.46v6.81ZM942.18,368.67h-4.46v-6.81h4.46v6.81ZM942.18,354.52h-4.46v-6.81h4.46v6.81ZM942.18,340.37h-4.46v-6.81h4.46v6.81ZM942.18,326.22h-4.46v-6.81h4.46v6.81ZM942.18,312.08h-4.46v-6.81h4.46v6.81ZM942.18,297.93h-4.46v-6.81h4.46v6.81ZM942.18,283.78h-4.46v-6.81h4.46v6.81ZM942.18,269.64h-4.46v-6.81h4.46v6.81ZM942.18,255.49h-4.46v-6.81h4.46v6.81ZM942.18,241.34h-4.46v-6.81h4.46v6.81ZM942.18,227.19h-4.46v-6.81h4.46v6.81ZM942.18,213.05h-4.46v-6.81h4.46v6.81ZM942.18,198.9h-4.46v-6.81h4.46v6.81ZM942.18,184.75h-4.46v-6.81h4.46v6.81ZM942.18,170.61h-4.46v-6.81h4.46v6.81ZM942.18,156.46h-4.46v-6.81h4.46v6.81ZM942.18,142.31h-4.46v-6.81h4.46v6.81ZM942.18,128.16h-4.46v-6.81h4.46v6.81ZM960.24,433.72h-6.38v-14.29h6.38v14.29ZM960.24,413.8h-6.38v-14.29h6.38v14.29ZM968.47,433.72h-6.38v-14.29h6.38v14.29ZM968.47,413.8h-6.38v-14.29h6.38v14.29ZM976.71,433.72h-6.38v-14.29h6.38v14.29ZM976.71,413.8h-6.38v-14.29h6.38v14.29ZM992.59,433.72h-2.64v-14.29h2.64v14.29ZM992.59,413.8h-2.64v-14.29h2.64v14.29ZM992.85,382.81h-4.46v-6.81h4.46v6.81ZM992.85,368.67h-4.46v-6.81h4.46v6.81ZM992.85,354.52h-4.46v-6.81h4.46v6.81ZM992.85,340.37h-4.46v-6.81h4.46v6.81ZM992.85,326.22h-4.46v-6.81h4.46v6.81ZM992.85,312.08h-4.46v-6.81h4.46v6.81ZM992.85,297.93h-4.46v-6.81h4.46v6.81ZM992.85,283.78h-4.46v-6.81h4.46v6.81ZM992.85,269.64h-4.46v-6.81h4.46v6.81ZM992.85,255.49h-4.46v-6.81h4.46v6.81ZM992.85,241.34h-4.46v-6.81h4.46v6.81ZM992.85,227.19h-4.46v-6.81h4.46v6.81ZM992.85,213.05h-4.46v-6.81h4.46v6.81ZM992.85,198.9h-4.46v-6.81h4.46v6.81ZM992.85,184.75h-4.46v-6.81h4.46v6.81ZM992.85,170.61h-4.46v-6.81h4.46v6.81ZM992.85,156.46h-4.46v-6.81h4.46v6.81ZM992.85,142.31h-4.46v-6.81h4.46v6.81ZM992.85,128.16h-4.46v-6.81h4.46v6.81ZM999.75,433.72h-5.29v-14.29h5.29v14.29ZM999.75,413.8h-5.29v-14.29h5.29v14.29ZM1004.27,433.72h-2.65v-14.29h2.65v14.29ZM1004.27,413.8h-2.65v-14.29h2.65v14.29ZM1022.34,333.56h4.46v6.81h-4.46v-6.81ZM1022.34,347.71h4.46v6.81h-4.46v-6.81ZM1022.34,361.85h4.46v6.81h-4.46v-6.81ZM1022.34,376h4.46v6.81h-4.46v-6.81ZM1013.44,319.41h4.46v6.81h-4.46v-6.81ZM1013.44,333.56h4.46v6.81h-4.46v-6.81ZM1013.44,347.71h4.46v6.81h-4.46v-6.81ZM1013.44,361.85h4.46v6.81h-4.46v-6.81ZM1013.44,376h4.46v6.81h-4.46v-6.81ZM1015.84,433.72h-2.65v-14.29h2.65v14.29ZM1015.84,413.8h-2.65v-14.29h2.65v14.29ZM1022.99,433.72h-5.29v-14.29h5.29v14.29ZM1022.99,413.8h-5.29v-14.29h5.29v14.29ZM1027.51,433.72h-2.65v-14.29h2.65v14.29ZM1027.51,413.8h-2.65v-14.29h2.65v14.29ZM1039.08,433.72h-2.65v-14.29h2.65v14.29ZM1039.08,413.8h-2.65v-14.29h2.65v14.29ZM1046.23,433.72h-5.29v-14.29h5.29v14.29ZM1046.23,413.8h-5.29v-14.29h5.29v14.29ZM1050.75,433.72h-2.64v-14.29h2.64v14.29ZM1050.75,413.8h-2.64v-14.29h2.64v14.29Z"/>
      <path class="cls-1" d="M576.64,345.28h3.78v-3h-3.78v-13.69h3.78v-3h-3.78v-13.69h3.78v-3h-3.78v-13.69h3.78v-3h-3.78v-13.69h3.78v-3h-3.78v-13.69h3.78v-3h-3.78v-13.69h3.78v-3h-3.78v-13.69h3.78v-3h-3.78v-13.69h3.78v-3h-3.78v-13.69h3.78v-3h-3.78v-13.69h3.78v-3h-3.78v-6.49h-37.04v-6.42h-38.21v6.42h-4.53v-4.07h-4.33v-1.95h.81c.39,0,.7-.31.7-.7v-8.21c0-.39-.31-.7-.7-.7h-.81v-4.14h.81c.39,0,.7-.31.7-.7v-8.21c0-.39-.31-.7-.7-.7h-.81v-10.11c0-.38-.31-.7-.7-.7s-.7.31-.7.7v4.24h-.81c-.39,0-.7.31-.7.7v8.21c0,.39.31.7.7.7h.81v4.13h-.81c-.39,0-.7.31-.7.7v8.21c0,.38.31.7.7.7h.81v7.81h-32.48v4.07h-105.04v6.49h-3.78v3h3.78v13.69h-3.78v3h3.78v13.69h-3.78v3h3.78v13.69h-3.78v3h3.78v13.69h-3.78v3h3.78v13.69h-3.78v3h3.78v13.69h-3.78v3h3.78v13.69h-3.78v3h3.78v13.69h-3.78v3h3.78v13.69h-3.78v3h3.78v13.69h-3.78v3h3.78v7.92h-4.99v57.62h4.99v25.16h223.03v-25.16h4.99v-57.62h-4.99v-7.92ZM560.96,181.46h2.27v7.27h-2.27v-7.27ZM560.96,198.15h2.27v7.27h-2.27v-7.27ZM560.96,214.84h2.27v7.27h-2.27v-7.27ZM560.96,231.53h2.27v7.27h-2.27v-7.27ZM560.96,248.22h2.27v7.27h-2.27v-7.27ZM560.96,264.9h2.27v7.27h-2.27v-7.27ZM560.96,281.59h2.27v7.27h-2.27v-7.27ZM560.96,298.28h2.27v7.27h-2.27v-7.27ZM560.96,314.97h2.27v7.27h-2.27v-7.27ZM556.75,181.46h2.26v7.27h-2.26v-7.27ZM556.75,198.15h2.26v7.27h-2.26v-7.27ZM556.75,214.84h2.26v7.27h-2.26v-7.27ZM556.75,231.53h2.26v7.27h-2.26v-7.27ZM556.75,248.22h2.26v7.27h-2.26v-7.27ZM556.75,264.9h2.26v7.27h-2.26v-7.27ZM556.75,281.59h2.26v7.27h-2.26v-7.27ZM556.75,298.28h2.26v7.27h-2.26v-7.27ZM556.75,314.97h2.26v7.27h-2.26v-7.27ZM556.75,331.66h2.26v7.27h-2.26v-7.27ZM546.88,181.46h2.26v7.27h-2.26v-7.27ZM546.88,198.15h2.26v7.27h-2.26v-7.27ZM546.88,214.84h2.26v7.27h-2.26v-7.27ZM546.88,231.53h2.26v7.27h-2.26v-7.27ZM546.88,248.22h2.26v7.27h-2.26v-7.27ZM546.88,264.9h2.26v7.27h-2.26v-7.27ZM546.88,281.59h2.26v7.27h-2.26v-7.27ZM546.88,298.28h2.26v7.27h-2.26v-7.27ZM546.88,314.97h2.26v7.27h-2.26v-7.27ZM530.04,181.46h2.27v7.27h-2.27v-7.27ZM530.04,198.15h2.27v7.27h-2.27v-7.27ZM530.04,214.84h2.27v7.27h-2.27v-7.27ZM530.04,231.53h2.27v7.27h-2.27v-7.27ZM530.04,248.22h2.27v7.27h-2.27v-7.27ZM530.04,264.9h2.27v7.27h-2.27v-7.27ZM530.04,281.59h2.27v7.27h-2.27v-7.27ZM530.04,298.28h2.27v7.27h-2.27v-7.27ZM530.04,314.97h2.27v7.27h-2.27v-7.27ZM525.83,181.46h2.27v7.27h-2.27v-7.27ZM525.83,198.15h2.27v7.27h-2.27v-7.27ZM525.83,214.84h2.27v7.27h-2.27v-7.27ZM525.83,231.53h2.27v7.27h-2.27v-7.27ZM525.83,248.22h2.27v7.27h-2.27v-7.27ZM525.83,264.9h2.27v7.27h-2.27v-7.27ZM525.83,281.59h2.27v7.27h-2.27v-7.27ZM525.83,298.28h2.27v7.27h-2.27v-7.27ZM525.83,314.97h2.27v7.27h-2.27v-7.27ZM525.83,331.66h2.27v7.27h-2.27v-7.27ZM499.12,181.46h2.27v7.27h-2.27v-7.27ZM499.12,198.15h2.27v7.27h-2.27v-7.27ZM499.12,214.84h2.27v7.27h-2.27v-7.27ZM499.12,231.53h2.27v7.27h-2.27v-7.27ZM499.12,248.22h2.27v7.27h-2.27v-7.27ZM499.12,264.9h2.27v7.27h-2.27v-7.27ZM499.12,281.59h2.27v7.27h-2.27v-7.27ZM499.12,298.28h2.27v7.27h-2.27v-7.27ZM499.12,314.97h2.27v7.27h-2.27v-7.27ZM494.91,181.46h2.27v7.27h-2.27v-7.27ZM494.91,198.15h2.27v7.27h-2.27v-7.27ZM494.91,214.84h2.27v7.27h-2.27v-7.27ZM494.91,231.53h2.27v7.27h-2.27v-7.27ZM494.91,248.22h2.27v7.27h-2.27v-7.27ZM494.91,264.9h2.27v7.27h-2.27v-7.27ZM494.91,281.59h2.27v7.27h-2.27v-7.27ZM494.91,298.28h2.27v7.27h-2.27v-7.27ZM494.91,314.97h2.27v7.27h-2.27v-7.27ZM494.91,331.66h2.27v7.27h-2.27v-7.27ZM486.49,181.46h2.27v7.27h-2.27v-7.27ZM486.49,198.15h2.27v7.27h-2.27v-7.27ZM486.49,214.84h2.27v7.27h-2.27v-7.27ZM486.49,231.53h2.27v7.27h-2.27v-7.27ZM486.49,248.22h2.27v7.27h-2.27v-7.27ZM486.49,264.9h2.27v7.27h-2.27v-7.27ZM486.49,281.59h2.27v7.27h-2.27v-7.27ZM486.49,298.28h2.27v7.27h-2.27v-7.27ZM486.49,314.97h2.27v7.27h-2.27v-7.27ZM468.2,181.46h2.26v7.27h-2.26v-7.27ZM468.2,198.15h2.26v7.27h-2.26v-7.27ZM468.2,214.84h2.26v7.27h-2.26v-7.27ZM468.2,231.53h2.26v7.27h-2.26v-7.27ZM468.2,248.22h2.26v7.27h-2.26v-7.27ZM468.2,264.9h2.26v7.27h-2.26v-7.27ZM468.2,281.59h2.26v7.27h-2.26v-7.27ZM468.2,298.28h2.26v7.27h-2.26v-7.27ZM468.2,314.97h2.26v7.27h-2.26v-7.27ZM463.99,181.46h2.27v7.27h-2.27v-7.27ZM463.99,198.15h2.27v7.27h-2.27v-7.27ZM463.99,214.84h2.27v7.27h-2.27v-7.27ZM463.99,231.53h2.27v7.27h-2.27v-7.27ZM463.99,248.22h2.27v7.27h-2.27v-7.27ZM463.99,264.9h2.27v7.27h-2.27v-7.27ZM463.99,281.59h2.27v7.27h-2.27v-7.27ZM463.99,298.28h2.27v7.27h-2.27v-7.27ZM463.99,314.97h2.27v7.27h-2.27v-7.27ZM463.99,331.66h2.27v7.27h-2.27v-7.27ZM455.57,181.46h2.27v7.27h-2.27v-7.27ZM455.57,198.15h2.27v7.27h-2.27v-7.27ZM455.57,214.84h2.27v7.27h-2.27v-7.27ZM455.57,231.53h2.27v7.27h-2.27v-7.27ZM455.57,248.22h2.27v7.27h-2.27v-7.27ZM455.57,264.9h2.27v7.27h-2.27v-7.27ZM455.57,281.59h2.27v7.27h-2.27v-7.27ZM455.57,298.28h2.27v7.27h-2.27v-7.27ZM455.57,314.97h2.27v7.27h-2.27v-7.27ZM437.28,181.46h2.26v7.27h-2.26v-7.27ZM437.28,198.15h2.26v7.27h-2.26v-7.27ZM437.28,214.84h2.26v7.27h-2.26v-7.27ZM437.28,231.53h2.26v7.27h-2.26v-7.27ZM437.28,248.22h2.26v7.27h-2.26v-7.27ZM437.28,264.9h2.26v7.27h-2.26v-7.27ZM437.28,281.59h2.26v7.27h-2.26v-7.27ZM437.28,298.28h2.26v7.27h-2.26v-7.27ZM437.28,314.97h2.26v7.27h-2.26v-7.27ZM433.07,181.46h2.27v7.27h-2.27v-7.27ZM433.07,198.15h2.27v7.27h-2.27v-7.27ZM433.07,214.84h2.27v7.27h-2.27v-7.27ZM433.07,231.53h2.27v7.27h-2.27v-7.27ZM433.07,248.22h2.27v7.27h-2.27v-7.27ZM433.07,264.9h2.27v7.27h-2.27v-7.27ZM433.07,281.59h2.27v7.27h-2.27v-7.27ZM433.07,298.28h2.27v7.27h-2.27v-7.27ZM433.07,314.97h2.27v7.27h-2.27v-7.27ZM433.07,331.66h2.27v7.27h-2.27v-7.27ZM424.65,181.46h2.26v7.27h-2.26v-7.27ZM424.65,198.15h2.26v7.27h-2.26v-7.27ZM424.65,214.84h2.26v7.27h-2.26v-7.27ZM424.65,231.53h2.26v7.27h-2.26v-7.27ZM424.65,248.22h2.26v7.27h-2.26v-7.27ZM424.65,264.9h2.26v7.27h-2.26v-7.27ZM424.65,281.59h2.26v7.27h-2.26v-7.27ZM424.65,298.28h2.26v7.27h-2.26v-7.27ZM424.65,314.97h2.26v7.27h-2.26v-7.27ZM406.36,181.46h2.27v7.27h-2.27v-7.27ZM406.36,198.15h2.27v7.27h-2.27v-7.27ZM406.36,214.84h2.27v7.27h-2.27v-7.27ZM406.36,231.53h2.27v7.27h-2.27v-7.27ZM406.36,248.22h2.27v7.27h-2.27v-7.27ZM406.36,264.9h2.27v7.27h-2.27v-7.27ZM406.36,281.59h2.27v7.27h-2.27v-7.27ZM406.36,298.28h2.27v7.27h-2.27v-7.27ZM406.36,314.97h2.27v7.27h-2.27v-7.27ZM402.15,181.46h2.27v7.27h-2.27v-7.27ZM402.15,198.15h2.27v7.27h-2.27v-7.27ZM402.15,214.84h2.27v7.27h-2.27v-7.27ZM402.15,231.53h2.27v7.27h-2.27v-7.27ZM402.15,248.22h2.27v7.27h-2.27v-7.27ZM402.15,264.9h2.27v7.27h-2.27v-7.27ZM402.15,281.59h2.27v7.27h-2.27v-7.27ZM402.15,298.28h2.27v7.27h-2.27v-7.27ZM402.15,314.97h2.27v7.27h-2.27v-7.27ZM402.15,331.66h2.27v7.27h-2.27v-7.27ZM393.73,181.46h2.26v7.27h-2.26v-7.27ZM393.73,198.15h2.26v7.27h-2.26v-7.27ZM393.73,214.84h2.26v7.27h-2.26v-7.27ZM393.73,231.53h2.26v7.27h-2.26v-7.27ZM393.73,248.22h2.26v7.27h-2.26v-7.27ZM393.73,264.9h2.26v7.27h-2.26v-7.27ZM393.73,281.59h2.26v7.27h-2.26v-7.27ZM393.73,298.28h2.26v7.27h-2.26v-7.27ZM393.73,314.97h2.26v7.27h-2.26v-7.27ZM371.23,181.46h2.26v7.27h-2.26v-7.27ZM371.23,198.15h2.26v7.27h-2.26v-7.27ZM371.23,214.84h2.26v7.27h-2.26v-7.27ZM371.23,231.53h2.26v7.27h-2.26v-7.27ZM371.23,248.22h2.26v7.27h-2.26v-7.27ZM371.23,264.9h2.26v7.27h-2.26v-7.27ZM371.23,281.59h2.26v7.27h-2.26v-7.27ZM371.23,298.28h2.26v7.27h-2.26v-7.27ZM371.23,314.97h2.26v7.27h-2.26v-7.27ZM362.81,181.46h2.27v7.27h-2.27v-7.27ZM362.81,198.15h2.27v7.27h-2.27v-7.27ZM362.81,214.84h2.27v7.27h-2.27v-7.27ZM362.81,231.53h2.27v7.27h-2.27v-7.27ZM362.81,248.22h2.27v7.27h-2.27v-7.27ZM362.81,264.9h2.27v7.27h-2.27v-7.27ZM362.81,281.59h2.27v7.27h-2.27v-7.27ZM362.81,298.28h2.27v7.27h-2.27v-7.27ZM360.87,322.24h-2.27v-7.27h2.27v7.27ZM360.87,305.55h-2.27v-7.27h2.27v7.27ZM360.87,288.87h-2.27v-7.27h2.27v7.27ZM360.87,272.18h-2.27v-7.27h2.27v7.27ZM360.87,255.49h-2.27v-7.27h2.27v7.27ZM360.87,238.8h-2.27v-7.27h2.27v7.27ZM360.87,222.11h-2.27v-7.27h2.27v7.27ZM360.87,205.43h-2.27v-7.27h2.27v7.27ZM360.87,188.74h-2.27v-7.27h2.27v7.27ZM362.81,314.97h2.27v7.27h-2.27v-7.27ZM367.8,431.86h-4.9v-14.98h4.9v14.98ZM369.29,322.24h-2.27v-7.27h2.27v7.27ZM369.29,305.55h-2.27v-7.27h2.27v7.27ZM369.29,288.87h-2.27v-7.27h2.27v7.27ZM369.29,272.18h-2.27v-7.27h2.27v7.27ZM369.29,255.49h-2.27v-7.27h2.27v7.27ZM369.29,238.8h-2.27v-7.27h2.27v7.27ZM369.29,222.11h-2.27v-7.27h2.27v7.27ZM369.29,205.43h-2.27v-7.27h2.27v7.27ZM369.29,188.74h-2.27v-7.27h2.27v7.27ZM374.81,431.86h-4.9v-14.98h4.9v14.98ZM381.82,431.86h-4.9v-14.98h4.9v14.98ZM383.37,338.93h-2.26v-7.27h2.26v7.27ZM383.37,322.24h-2.26v-7.27h2.26v7.27ZM383.37,305.55h-2.26v-7.27h2.26v7.27ZM383.37,288.87h-2.26v-7.27h2.26v7.27ZM383.37,272.18h-2.26v-7.27h2.26v7.27ZM383.37,255.49h-2.26v-7.27h2.26v7.27ZM383.37,238.8h-2.26v-7.27h2.26v7.27ZM383.37,222.11h-2.26v-7.27h2.26v7.27ZM383.37,205.43h-2.26v-7.27h2.26v7.27ZM383.37,188.74h-2.26v-7.27h2.26v7.27ZM387.58,338.93h-2.27v-7.27h2.27v7.27ZM387.58,322.24h-2.27v-7.27h2.27v7.27ZM387.58,305.55h-2.27v-7.27h2.27v7.27ZM387.58,288.87h-2.27v-7.27h2.27v7.27ZM387.58,272.18h-2.27v-7.27h2.27v7.27ZM387.58,255.49h-2.27v-7.27h2.27v7.27ZM387.58,238.8h-2.27v-7.27h2.27v7.27ZM387.58,222.11h-2.27v-7.27h2.27v7.27ZM387.58,205.43h-2.27v-7.27h2.27v7.27ZM387.58,188.74h-2.27v-7.27h2.27v7.27ZM391.79,338.93h-2.27v-7.27h2.27v7.27ZM391.79,322.24h-2.27v-7.27h2.27v7.27ZM391.79,305.55h-2.27v-7.27h2.27v7.27ZM391.79,288.87h-2.27v-7.27h2.27v7.27ZM391.79,272.18h-2.27v-7.27h2.27v7.27ZM391.79,255.49h-2.27v-7.27h2.27v7.27ZM391.79,238.8h-2.27v-7.27h2.27v7.27ZM391.79,222.11h-2.27v-7.27h2.27v7.27ZM391.79,205.43h-2.27v-7.27h2.27v7.27ZM391.79,188.74h-2.27v-7.27h2.27v7.27ZM393.73,331.66h2.26v7.27h-2.26v-7.27ZM398.72,431.86h-4.9v-14.98h4.9v14.98ZM400.21,338.93h-2.27v-7.27h2.27v7.27ZM400.21,322.24h-2.27v-7.27h2.27v7.27ZM400.21,305.55h-2.27v-7.27h2.27v7.27ZM400.21,288.87h-2.27v-7.27h2.27v7.27ZM400.21,272.18h-2.27v-7.27h2.27v7.27ZM400.21,255.49h-2.27v-7.27h2.27v7.27ZM400.21,238.8h-2.27v-7.27h2.27v7.27ZM400.21,222.11h-2.27v-7.27h2.27v7.27ZM400.21,205.43h-2.27v-7.27h2.27v7.27ZM400.21,188.74h-2.27v-7.27h2.27v7.27ZM405.73,431.86h-4.9v-14.98h4.9v14.98ZM406.36,331.66h2.27v7.27h-2.27v-7.27ZM412.74,431.86h-4.9v-14.98h4.9v14.98ZM418.5,338.93h-2.26v-7.27h2.26v7.27ZM418.5,322.24h-2.26v-7.27h2.26v7.27ZM418.5,305.55h-2.26v-7.27h2.26v7.27ZM418.5,288.87h-2.26v-7.27h2.26v7.27ZM418.5,272.18h-2.26v-7.27h2.26v7.27ZM418.5,255.49h-2.26v-7.27h2.26v7.27ZM418.5,238.8h-2.26v-7.27h2.26v7.27ZM418.5,222.11h-2.26v-7.27h2.26v7.27ZM418.5,205.43h-2.26v-7.27h2.26v7.27ZM418.5,188.74h-2.26v-7.27h2.26v7.27ZM422.71,338.93h-2.27v-7.27h2.27v7.27ZM422.71,322.24h-2.27v-7.27h2.27v7.27ZM422.71,305.55h-2.27v-7.27h2.27v7.27ZM422.71,288.87h-2.27v-7.27h2.27v7.27ZM422.71,272.18h-2.27v-7.27h2.27v7.27ZM422.71,255.49h-2.27v-7.27h2.27v7.27ZM422.71,238.8h-2.27v-7.27h2.27v7.27ZM422.71,222.11h-2.27v-7.27h2.27v7.27ZM422.71,205.43h-2.27v-7.27h2.27v7.27ZM422.71,188.74h-2.27v-7.27h2.27v7.27ZM424.65,331.66h2.26v7.27h-2.26v-7.27ZM429.64,431.86h-4.9v-14.98h4.9v14.98ZM431.13,338.93h-2.27v-7.27h2.27v7.27ZM431.13,322.24h-2.27v-7.27h2.27v7.27ZM431.13,305.55h-2.27v-7.27h2.27v7.27ZM431.13,288.87h-2.27v-7.27h2.27v7.27ZM431.13,272.18h-2.27v-7.27h2.27v7.27ZM431.13,255.49h-2.27v-7.27h2.27v7.27ZM431.13,238.8h-2.27v-7.27h2.27v7.27ZM431.13,222.11h-2.27v-7.27h2.27v7.27ZM431.13,205.43h-2.27v-7.27h2.27v7.27ZM431.13,188.74h-2.27v-7.27h2.27v7.27ZM436.65,431.86h-4.9v-14.98h4.9v14.98ZM437.28,331.66h2.26v7.27h-2.26v-7.27ZM443.66,431.86h-4.9v-14.98h4.9v14.98ZM443.76,338.93h-2.27v-7.27h2.27v7.27ZM443.76,322.24h-2.27v-7.27h2.27v7.27ZM443.76,305.55h-2.27v-7.27h2.27v7.27ZM443.76,288.87h-2.27v-7.27h2.27v7.27ZM443.76,272.18h-2.27v-7.27h2.27v7.27ZM443.76,255.49h-2.27v-7.27h2.27v7.27ZM443.76,238.8h-2.27v-7.27h2.27v7.27ZM443.76,222.11h-2.27v-7.27h2.27v7.27ZM443.76,205.43h-2.27v-7.27h2.27v7.27ZM443.76,188.74h-2.27v-7.27h2.27v7.27ZM453.63,338.93h-2.27v-7.27h2.27v7.27ZM453.63,322.24h-2.27v-7.27h2.27v7.27ZM453.63,305.55h-2.27v-7.27h2.27v7.27ZM453.63,288.87h-2.27v-7.27h2.27v7.27ZM453.63,272.18h-2.27v-7.27h2.27v7.27ZM453.63,255.49h-2.27v-7.27h2.27v7.27ZM453.63,238.8h-2.27v-7.27h2.27v7.27ZM453.63,222.11h-2.27v-7.27h2.27v7.27ZM453.63,205.43h-2.27v-7.27h2.27v7.27ZM453.63,188.74h-2.27v-7.27h2.27v7.27ZM455.57,331.66h2.27v7.27h-2.27v-7.27ZM460.56,431.86h-4.9v-14.98h4.9v14.98ZM462.05,338.93h-2.26v-7.27h2.26v7.27ZM462.05,322.24h-2.26v-7.27h2.26v7.27ZM462.05,305.55h-2.26v-7.27h2.26v7.27ZM462.05,288.87h-2.26v-7.27h2.26v7.27ZM462.05,272.18h-2.26v-7.27h2.26v7.27ZM462.05,255.49h-2.26v-7.27h2.26v7.27ZM462.05,238.8h-2.26v-7.27h2.26v7.27ZM462.05,222.11h-2.26v-7.27h2.26v7.27ZM462.05,205.43h-2.26v-7.27h2.26v7.27ZM462.05,188.74h-2.26v-7.27h2.26v7.27ZM467.57,431.86h-4.9v-14.98h4.9v14.98ZM468.2,331.66h2.26v7.27h-2.26v-7.27ZM474.59,431.86h-4.9v-14.98h4.9v14.98ZM474.68,338.93h-2.27v-7.27h2.27v7.27ZM474.68,322.24h-2.27v-7.27h2.27v7.27ZM474.68,305.55h-2.27v-7.27h2.27v7.27ZM474.68,288.87h-2.27v-7.27h2.27v7.27ZM474.68,272.18h-2.27v-7.27h2.27v7.27ZM474.68,255.49h-2.27v-7.27h2.27v7.27ZM474.68,238.8h-2.27v-7.27h2.27v7.27ZM474.68,222.11h-2.27v-7.27h2.27v7.27ZM474.68,205.43h-2.27v-7.27h2.27v7.27ZM474.68,188.74h-2.27v-7.27h2.27v7.27ZM478.89,338.93h-2.27v-7.27h2.27v7.27ZM478.89,322.24h-2.27v-7.27h2.27v7.27ZM478.89,305.55h-2.27v-7.27h2.27v7.27ZM478.89,288.87h-2.27v-7.27h2.27v7.27ZM478.89,272.18h-2.27v-7.27h2.27v7.27ZM478.89,255.49h-2.27v-7.27h2.27v7.27ZM478.89,238.8h-2.27v-7.27h2.27v7.27ZM478.89,222.11h-2.27v-7.27h2.27v7.27ZM478.89,205.43h-2.27v-7.27h2.27v7.27ZM478.89,188.74h-2.27v-7.27h2.27v7.27ZM486.49,331.66h2.27v7.27h-2.27v-7.27ZM491.48,431.86h-4.9v-14.98h4.9v14.98ZM492.97,338.93h-2.26v-7.27h2.26v7.27ZM492.97,322.24h-2.26v-7.27h2.26v7.27ZM492.97,305.55h-2.26v-7.27h2.26v7.27ZM492.97,288.87h-2.26v-7.27h2.26v7.27ZM492.97,272.18h-2.26v-7.27h2.26v7.27ZM492.97,255.49h-2.26v-7.27h2.26v7.27ZM492.97,238.8h-2.26v-7.27h2.26v7.27ZM492.97,222.11h-2.26v-7.27h2.26v7.27ZM492.97,205.43h-2.26v-7.27h2.26v7.27ZM492.97,188.74h-2.26v-7.27h2.26v7.27ZM498.49,431.86h-4.9v-14.98h4.9v14.98ZM499.12,331.66h2.27v7.27h-2.27v-7.27ZM505.51,431.86h-4.9v-14.98h4.9v14.98ZM505.6,338.93h-2.26v-7.27h2.26v7.27ZM505.6,322.24h-2.26v-7.27h2.26v7.27ZM505.6,305.55h-2.26v-7.27h2.26v7.27ZM505.6,288.87h-2.26v-7.27h2.26v7.27ZM505.6,272.18h-2.26v-7.27h2.26v7.27ZM505.6,255.49h-2.26v-7.27h2.26v7.27ZM505.6,238.8h-2.26v-7.27h2.26v7.27ZM505.6,222.11h-2.26v-7.27h2.26v7.27ZM505.6,205.43h-2.26v-7.27h2.26v7.27ZM505.6,188.74h-2.26v-7.27h2.26v7.27ZM509.81,338.93h-2.27v-7.27h2.27v7.27ZM509.81,322.24h-2.27v-7.27h2.27v7.27ZM509.81,305.55h-2.27v-7.27h2.27v7.27ZM509.81,288.87h-2.27v-7.27h2.27v7.27ZM509.81,272.18h-2.27v-7.27h2.27v7.27ZM509.81,255.49h-2.27v-7.27h2.27v7.27ZM509.81,238.8h-2.27v-7.27h2.27v7.27ZM509.81,222.11h-2.27v-7.27h2.27v7.27ZM509.81,205.43h-2.27v-7.27h2.27v7.27ZM509.81,188.74h-2.27v-7.27h2.27v7.27ZM514.02,338.93h-2.26v-7.27h2.26v7.27ZM514.02,322.24h-2.26v-7.27h2.26v7.27ZM514.02,305.55h-2.26v-7.27h2.26v7.27ZM514.02,288.87h-2.26v-7.27h2.26v7.27ZM514.02,272.18h-2.26v-7.27h2.26v7.27ZM514.02,255.49h-2.26v-7.27h2.26v7.27ZM514.02,238.8h-2.26v-7.27h2.26v7.27ZM514.02,222.11h-2.26v-7.27h2.26v7.27ZM514.02,205.43h-2.26v-7.27h2.26v7.27ZM514.02,188.74h-2.26v-7.27h2.26v7.27ZM522.4,431.86h-4.9v-14.98h4.9v14.98ZM523.89,338.93h-2.27v-7.27h2.27v7.27ZM523.89,322.24h-2.27v-7.27h2.27v7.27ZM523.89,305.55h-2.27v-7.27h2.27v7.27ZM523.89,288.87h-2.27v-7.27h2.27v7.27ZM523.89,272.18h-2.27v-7.27h2.27v7.27ZM523.89,255.49h-2.27v-7.27h2.27v7.27ZM523.89,238.8h-2.27v-7.27h2.27v7.27ZM523.89,222.11h-2.27v-7.27h2.27v7.27ZM523.89,205.43h-2.27v-7.27h2.27v7.27ZM523.89,188.74h-2.27v-7.27h2.27v7.27ZM529.42,431.86h-4.9v-14.98h4.9v14.98ZM530.04,331.66h2.27v7.27h-2.27v-7.27ZM536.43,431.86h-4.9v-14.98h4.9v14.98ZM536.52,338.93h-2.26v-7.27h2.26v7.27ZM536.52,322.24h-2.26v-7.27h2.26v7.27ZM536.52,305.55h-2.26v-7.27h2.26v7.27ZM536.52,288.87h-2.26v-7.27h2.26v7.27ZM536.52,272.18h-2.26v-7.27h2.26v7.27ZM536.52,255.49h-2.26v-7.27h2.26v7.27ZM536.52,238.8h-2.26v-7.27h2.26v7.27ZM536.52,222.11h-2.26v-7.27h2.26v7.27ZM536.52,205.43h-2.26v-7.27h2.26v7.27ZM536.52,188.74h-2.26v-7.27h2.26v7.27ZM540.73,338.93h-2.27v-7.27h2.27v7.27ZM540.73,322.24h-2.27v-7.27h2.27v7.27ZM540.73,305.55h-2.27v-7.27h2.27v7.27ZM540.73,288.87h-2.27v-7.27h2.27v7.27ZM540.73,272.18h-2.27v-7.27h2.27v7.27ZM540.73,255.49h-2.27v-7.27h2.27v7.27ZM540.73,238.8h-2.27v-7.27h2.27v7.27ZM540.73,222.11h-2.27v-7.27h2.27v7.27ZM540.73,205.43h-2.27v-7.27h2.27v7.27ZM540.73,188.74h-2.27v-7.27h2.27v7.27ZM544.94,338.93h-2.27v-7.27h2.27v7.27ZM544.94,322.24h-2.27v-7.27h2.27v7.27ZM544.94,305.55h-2.27v-7.27h2.27v7.27ZM544.94,288.87h-2.27v-7.27h2.27v7.27ZM544.94,272.18h-2.27v-7.27h2.27v7.27ZM544.94,255.49h-2.27v-7.27h2.27v7.27ZM544.94,238.8h-2.27v-7.27h2.27v7.27ZM544.94,222.11h-2.27v-7.27h2.27v7.27ZM544.94,205.43h-2.27v-7.27h2.27v7.27ZM544.94,188.74h-2.27v-7.27h2.27v7.27ZM546.88,331.66h2.26v7.27h-2.26v-7.27ZM553.32,431.86h-4.9v-14.98h4.9v14.98ZM560.34,431.86h-4.9v-14.98h4.9v14.98ZM560.96,331.66h2.27v7.27h-2.27v-7.27ZM567.35,431.86h-4.9v-14.98h4.9v14.98ZM567.44,338.93h-2.27v-7.27h2.27v7.27ZM567.44,322.24h-2.27v-7.27h2.27v7.27ZM567.44,305.55h-2.27v-7.27h2.27v7.27ZM567.44,288.87h-2.27v-7.27h2.27v7.27ZM567.44,272.18h-2.27v-7.27h2.27v7.27ZM567.44,255.49h-2.27v-7.27h2.27v7.27ZM567.44,238.8h-2.27v-7.27h2.27v7.27ZM567.44,222.11h-2.27v-7.27h2.27v7.27ZM567.44,205.43h-2.27v-7.27h2.27v7.27ZM567.44,188.74h-2.27v-7.27h2.27v7.27ZM571.65,338.93h-2.27v-7.27h2.27v7.27ZM571.65,322.24h-2.27v-7.27h2.27v7.27ZM571.65,305.55h-2.27v-7.27h2.27v7.27ZM571.65,288.87h-2.27v-7.27h2.27v7.27ZM571.65,272.18h-2.27v-7.27h2.27v7.27ZM571.65,255.49h-2.27v-7.27h2.27v7.27ZM571.65,238.8h-2.27v-7.27h2.27v7.27ZM571.65,222.11h-2.27v-7.27h2.27v7.27ZM571.65,205.43h-2.27v-7.27h2.27v7.27ZM571.65,188.74h-2.27v-7.27h2.27v7.27Z"/>
      <polygon class="cls-1" points="1757.71 219.01 1748.11 219.01 1748.11 204.75 1699.76 204.75 1699.76 219.01 1641.74 219.01 1641.74 435.08 1757.71 435.08 1757.71 388.86 1841.63 388.86 1841.63 345.35 1757.71 345.35 1757.71 219.01"/>
      <polygon class="cls-1" points="2094.39 299.04 2021.92 299.04 2021.92 373.8 1947.27 373.8 1947.27 179.3 1855.9 179.3 1855.9 456.63 1927.33 456.63 1927.33 460.69 2042.89 460.69 2042.89 449.62 2094.39 449.62 2094.39 299.04"/>
      <rect class="cls-1" x="827.58" y="213.05" width="73.78" height="104.36"/>
      <polygon class="cls-1" points="192.91 360.97 79.07 360.97 79.07 458.65 221.92 458.65 221.92 439.57 286.1 439.57 286.1 312.08 192.91 312.08 192.91 360.97"/>
    </g>
    <g>
      <path class="cls-3" d="M1467.74,161.9h-33.88v10.19h-122.96v7.04l1.49,3.52v169.9l-.68,1.22v3.99l.47.81v37.65h-39.03v-105.52h-11.07v-11.7h-52.08v11.7h-26.8v102.37h-79.13v-119.89h-99.3v72.17h-55.13v-99.36h-105.37v-21.56h-35.38v21.56h-21.59v159.25h-11.86v-45.98h-41.01v-81.64l1.57-2.25v-3.59h-2.25v-8.18l.61-1.09v-1.12h-9.11v1.12l.19.39h-35.49l.19-.35v-2.09s-1.48-1.73-3.34-1.44c-1.83.29-5.39-.13-5.84-1.03-.45-.9-2.12-3.18-4.01-2.53-1.89.61-3.37-2.34-4.3-3.34-.93-1.03-1.7-.67-3.85-.9-2.15-.22-3.5-1.16-3.53-1.96-.06-.77-.29-4.11-3.79-5.1-3.47.99-3.72,4.33-3.75,5.1-.06.8-1.41,1.73-3.56,1.96-2.15.22-2.89-.13-3.82.9-.93.99-2.41,3.95-4.33,3.34-1.89-.64-3.53,1.64-3.98,2.53-.48.9-4.01,1.32-5.87,1.03-1.86-.29-3.31,1.44-3.31,1.44v2.09l.19.35h-35.49l.19-.39v-1.12h-9.11v1.12l.61,1.09v8.18h-2.28v3.59l1.6,2.25v94.38l-.67,1.44v66.72h126.69v2.34h60.84v-2.18h48.29v-4.34h125.91v-4.75h55.13v11.27h99.3v-2.93h96.66v-1.2h49.94v4.13h92.53v-6.52h162.91v-77.41l.47-.81v-3.99l-.68-1.22v-169.9l1.49-3.52v-7.04h-39.65v-10.19ZM1334,199.03h5.86v10.73h-5.86v-10.73ZM1334,215.42h5.86v9.15h-5.86v-9.15ZM1334,233.54h5.86v9.16h-5.86v-9.16ZM1334,251.07h5.86v9.15h-5.86v-9.15ZM1334,268.6h5.86v9.15h-5.86v-9.15ZM1334,286.12h5.86v9.15h-5.86v-9.15ZM1334,303.66h5.86v9.15h-5.86v-9.15ZM1334,321.19h5.86v9.15h-5.86v-9.15ZM1334,338.71h5.86v9.15h-5.86v-9.15ZM1334,356.24h5.86v9.15h-5.86v-9.15ZM1334,373.78h5.86v9.15h-5.86v-9.15ZM1339.86,393.07v3.16h-5.86v-3.16h5.86ZM1324.98,199.03h5.86v10.73h-5.86v-10.73ZM1324.98,215.42h5.86v9.15h-5.86v-9.15ZM1324.98,233.54h5.86v9.16h-5.86v-9.16ZM1324.98,251.07h5.86v9.15h-5.86v-9.15ZM1324.98,268.6h5.86v9.15h-5.86v-9.15ZM1324.98,286.12h5.86v9.15h-5.86v-9.15ZM1324.98,303.66h5.86v9.15h-5.86v-9.15ZM1324.98,321.19h5.86v9.15h-5.86v-9.15ZM1324.98,338.71h5.86v9.15h-5.86v-9.15ZM1324.98,356.24h5.86v9.15h-5.86v-9.15ZM1324.98,373.78h5.86v9.15h-5.86v-9.15ZM1324.98,393.07h5.86v3.16h-5.86v-3.16ZM1356.42,428.22h-5.86v-18.21h5.86v18.21ZM1356.42,403.8h-5.86v-10.74h5.86v10.74ZM1356.42,382.93h-5.86v-9.15h5.86v9.15ZM1356.42,365.39h-5.86v-9.15h5.86v9.15ZM1356.42,347.86h-5.86v-9.15h5.86v9.15ZM1356.42,330.34h-5.86v-9.15h5.86v9.15ZM1356.42,312.81h-5.86v-9.15h5.86v9.15ZM1356.42,295.27h-5.86v-9.15h5.86v9.15ZM1356.42,277.75h-5.86v-9.15h5.86v9.15ZM1356.42,260.22h-5.86v-9.15h5.86v9.15ZM1356.42,242.69h-5.86v-9.16h5.86v9.16ZM1356.42,224.57h-5.86v-9.15h5.86v9.15ZM1356.42,209.76h-5.86v-10.73h5.86v10.73ZM1365.44,428.22h-5.86v-18.21h5.86v18.21ZM1365.44,403.8h-5.86v-10.74h5.86v10.74ZM1365.44,382.93h-5.86v-9.15h5.86v9.15ZM1365.44,365.39h-5.86v-9.15h5.86v9.15ZM1365.44,347.86h-5.86v-9.15h5.86v9.15ZM1365.44,330.34h-5.86v-9.15h5.86v9.15ZM1365.44,312.81h-5.86v-9.15h5.86v9.15ZM1365.44,295.27h-5.86v-9.15h5.86v9.15ZM1365.44,277.75h-5.86v-9.15h5.86v9.15ZM1365.44,260.22h-5.86v-9.15h5.86v9.15ZM1365.44,242.69h-5.86v-9.16h5.86v9.16ZM1365.44,224.57h-5.86v-9.15h5.86v9.15ZM1365.44,209.76h-5.86v-10.73h5.86v10.73ZM1381.99,428.22h-5.86v-18.21h5.86v18.21ZM1381.99,403.8h-5.86v-10.74h5.86v10.74ZM1381.99,382.93h-5.86v-9.15h5.86v9.15ZM1381.99,365.39h-5.86v-9.15h5.86v9.15ZM1381.99,347.86h-5.86v-9.15h5.86v9.15ZM1381.99,330.34h-5.86v-9.15h5.86v9.15ZM1381.99,312.81h-5.86v-9.15h5.86v9.15ZM1381.99,295.27h-5.86v-9.15h5.86v9.15ZM1381.99,277.75h-5.86v-9.15h5.86v9.15ZM1381.99,260.22h-5.86v-9.15h5.86v9.15ZM1381.99,242.69h-5.86v-9.16h5.86v9.16ZM1381.99,224.57h-5.86v-9.15h5.86v9.15ZM1381.99,209.76h-5.86v-10.73h5.86v10.73ZM1391.01,428.22h-5.86v-18.21h5.86v18.21ZM1391.01,403.8h-5.86v-10.74h5.86v10.74ZM1391.01,382.93h-5.86v-9.15h5.86v9.15ZM1391.01,365.39h-5.86v-9.15h5.86v9.15ZM1391.01,347.86h-5.86v-9.15h5.86v9.15ZM1391.01,330.34h-5.86v-9.15h5.86v9.15ZM1391.01,312.81h-5.86v-9.15h5.86v9.15ZM1391.01,295.27h-5.86v-9.15h5.86v9.15ZM1391.01,277.75h-5.86v-9.15h5.86v9.15ZM1391.01,260.22h-5.86v-9.15h5.86v9.15ZM1391.01,242.69h-5.86v-9.16h5.86v9.16ZM1391.01,224.57h-5.86v-9.15h5.86v9.15ZM1391.01,209.76h-5.86v-10.73h5.86v10.73ZM1407.57,428.22h-5.86v-18.21h5.86v18.21ZM1407.57,403.8h-5.86v-10.74h5.86v10.74ZM1407.57,382.93h-5.86v-9.15h5.86v9.15ZM1407.57,365.39h-5.86v-9.15h5.86v9.15ZM1407.57,347.86h-5.86v-9.15h5.86v9.15ZM1407.57,330.34h-5.86v-9.15h5.86v9.15ZM1407.57,312.81h-5.86v-9.15h5.86v9.15ZM1407.57,295.27h-5.86v-9.15h5.86v9.15ZM1407.57,277.75h-5.86v-9.15h5.86v9.15ZM1407.57,260.22h-5.86v-9.15h5.86v9.15ZM1407.57,242.69h-5.86v-9.16h5.86v9.16ZM1407.57,224.57h-5.86v-9.15h5.86v9.15ZM1407.57,209.76h-5.86v-10.73h5.86v10.73ZM1416.59,428.22h-5.86v-18.21h5.86v18.21ZM1416.59,403.8h-5.86v-10.74h5.86v10.74ZM1416.59,382.93h-5.86v-9.15h5.86v9.15ZM1416.59,365.39h-5.86v-9.15h5.86v9.15ZM1416.59,347.86h-5.86v-9.15h5.86v9.15ZM1416.59,330.34h-5.86v-9.15h5.86v9.15ZM1416.59,312.81h-5.86v-9.15h5.86v9.15ZM1416.59,295.27h-5.86v-9.15h5.86v9.15ZM1416.59,277.75h-5.86v-9.15h5.86v9.15ZM1416.59,260.22h-5.86v-9.15h5.86v9.15ZM1416.59,242.69h-5.86v-9.16h5.86v9.16ZM1416.59,224.57h-5.86v-9.15h5.86v9.15ZM1416.59,209.76h-5.86v-10.73h5.86v10.73ZM1433.15,428.22h-5.86v-18.21h5.86v18.21ZM1433.15,403.8h-5.86v-10.74h5.86v10.74ZM1433.15,382.93h-5.86v-9.15h5.86v9.15ZM1433.15,365.39h-5.86v-9.15h5.86v9.15ZM1433.15,347.86h-5.86v-9.15h5.86v9.15ZM1433.15,330.34h-5.86v-9.15h5.86v9.15ZM1433.15,312.81h-5.86v-9.15h5.86v9.15ZM1433.15,295.27h-5.86v-9.15h5.86v9.15ZM1433.15,277.75h-5.86v-9.15h5.86v9.15ZM1433.15,260.22h-5.86v-9.15h5.86v9.15ZM1433.15,242.69h-5.86v-9.16h5.86v9.16ZM1433.15,224.57h-5.86v-9.15h5.86v9.15ZM1433.15,209.76h-5.86v-10.73h5.86v10.73ZM1487.46,199.03h5.86v10.73h-5.86v-10.73ZM1487.46,215.42h5.86v9.15h-5.86v-9.15ZM1487.46,233.54h5.86v9.16h-5.86v-9.16ZM1487.46,251.07h5.86v9.15h-5.86v-9.15ZM1487.46,268.6h5.86v9.15h-5.86v-9.15ZM1487.46,286.12h5.86v9.15h-5.86v-9.15ZM1487.46,303.66h5.86v9.15h-5.86v-9.15ZM1487.46,321.19h5.86v9.15h-5.86v-9.15ZM1487.46,338.71h5.86v9.15h-5.86v-9.15ZM1487.46,356.24h5.86v9.15h-5.86v-9.15ZM1487.46,373.78h5.86v9.15h-5.86v-9.15ZM1487.46,393.07h5.86v10.74h-5.86v-10.74ZM1487.46,410.01h5.86v18.21h-5.86v-18.21ZM1478.43,199.03h5.86v10.73h-5.86v-10.73ZM1478.43,215.42h5.86v9.15h-5.86v-9.15ZM1478.43,233.54h5.86v9.16h-5.86v-9.16ZM1478.43,251.07h5.86v9.15h-5.86v-9.15ZM1478.43,268.6h5.86v9.15h-5.86v-9.15ZM1478.43,286.12h5.86v9.15h-5.86v-9.15ZM1478.43,303.66h5.86v9.15h-5.86v-9.15ZM1478.43,321.19h5.86v9.15h-5.86v-9.15ZM1478.43,338.71h5.86v9.15h-5.86v-9.15ZM1478.43,356.24h5.86v9.15h-5.86v-9.15ZM1478.43,373.78h5.86v9.15h-5.86v-9.15ZM1478.43,393.07h5.86v10.74h-5.86v-10.74ZM1478.43,410.01h5.86v18.21h-5.86v-18.21ZM1442.17,428.22h-5.86v-18.21h5.86v18.21ZM1442.17,403.8h-5.86v-10.74h5.86v10.74ZM1442.17,382.93h-5.86v-9.15h5.86v9.15ZM1442.17,365.39h-5.86v-9.15h5.86v9.15ZM1442.17,347.86h-5.86v-9.15h5.86v9.15ZM1442.17,330.34h-5.86v-9.15h5.86v9.15ZM1442.17,312.81h-5.86v-9.15h5.86v9.15ZM1442.17,295.27h-5.86v-9.15h5.86v9.15ZM1442.17,277.75h-5.86v-9.15h5.86v9.15ZM1442.17,260.22h-5.86v-9.15h5.86v9.15ZM1442.17,242.69h-5.86v-9.16h5.86v9.16ZM1442.17,224.57h-5.86v-9.15h5.86v9.15ZM1442.17,209.76h-5.86v-10.73h5.86v10.73ZM1458.72,428.22h-5.86v-18.21h5.86v18.21ZM1458.72,403.8h-5.86v-10.74h5.86v10.74ZM1458.72,382.93h-5.86v-9.15h5.86v9.15ZM1458.72,365.39h-5.86v-9.15h5.86v9.15ZM1458.72,347.86h-5.86v-9.15h5.86v9.15ZM1458.72,330.34h-5.86v-9.15h5.86v9.15ZM1458.72,312.81h-5.86v-9.15h5.86v9.15ZM1458.72,295.27h-5.86v-9.15h5.86v9.15ZM1458.72,277.75h-5.86v-9.15h5.86v9.15ZM1458.72,260.22h-5.86v-9.15h5.86v9.15ZM1458.72,242.69h-5.86v-9.16h5.86v9.16ZM1458.72,224.57h-5.86v-9.15h5.86v9.15ZM1458.72,209.76h-5.86v-10.73h5.86v10.73ZM1467.74,428.22h-5.86v-18.21h5.86v18.21ZM1467.74,403.8h-5.86v-10.74h5.86v10.74ZM1467.74,382.93h-5.86v-9.15h5.86v9.15ZM1467.74,365.39h-5.86v-9.15h5.86v9.15ZM1467.74,347.86h-5.86v-9.15h5.86v9.15ZM1467.74,330.34h-5.86v-9.15h5.86v9.15ZM1467.74,312.81h-5.86v-9.15h5.86v9.15ZM1467.74,295.27h-5.86v-9.15h5.86v9.15ZM1467.74,277.75h-5.86v-9.15h5.86v9.15ZM1467.74,260.22h-5.86v-9.15h5.86v9.15ZM1467.74,242.69h-5.86v-9.16h5.86v9.16ZM1467.74,224.57h-5.86v-9.15h5.86v9.15ZM1467.74,209.76h-5.86v-10.73h5.86v10.73Z"/>
      <path class="cls-3" d="M1990.9,335.09l-.95-2.11v-101.4l1.62-2.21v-2.36h-2.74v-9.48l1.9-2.62v-2.89h-4.15v-2.76l-1.06-1.1v-5.21h-.05v-4.9c-1.42.21-1.42,1.56-1.42,1.56v1.05l-3.51,1.11v1.18h-14.03v-1.18l-3.51-1.11v-1.05s0-1.35-1.42-1.56c-1.42.21-1.42,1.56-1.42,1.56v1.05l-3.51,1.11v1.18h-12.02v-1.18l-3.51-1.11v-1.05s0-1.35-1.42-1.56c-1.42.21-1.42,1.56-1.42,1.56v1.05l-3.51,1.11v1.18h-12.64s.36-3.57-.91-3.57-1.41.67-1.41.67l-7.23-1c.84-4.91-2.95-6.12-2.95-6.12,0,0-3.79,1.21-2.95,6.12l-7.23,1s-.15-.67-1.41-.67-.91,3.57-.91,3.57h-12.64v-1.18l-3.49-1.11v-1.05s0-1.35-1.43-1.56c-1.42.21-1.42,1.56-1.42,1.56v1.05l-3.51,1.11v1.18h-12.02v-1.18l-3.49-1.11v-1.05s0-1.35-1.43-1.56c-1.42.21-1.42,1.56-1.42,1.56v1.05l-3.51,1.11v1.18h-14.03v-1.18l-3.51-1.11v-1.05s0-1.35-1.42-1.56v4.9h-.05v5.21l-1.06,1.1v2.76h-4.13v2.89l1.89,2.62v9.48h-2.74v2.36l1.62,2.21v101.4l-.95,2.11v8.06h-3.79v2.32l.84,1.81v8.78l.42,1.81v4.75h-51.98v16.84h-62.64v-109.28h-106.13v68.16h-92.76v97.97h92.76v2.06h106.13v-5.39h62.64v9.27h50.72v7.37h170.08v-21.48l-1.26-1.91v-68.35l.42-1.81v-8.78l.84-1.81v-2.32h-3.79v-8.06ZM1838.73,250.58h4.11v4.11h-4.11v-4.11ZM1838.73,257.75h4.11v12.43h-4.11v-12.43ZM1838.73,310.6h4.11v12.43h-4.11v-12.43ZM1862.02,419.94h-5.58v-8.71h5.58v8.71ZM1862.02,379.46h-5.58v-8.71h5.58v8.71ZM1862.77,334.92h-7.07v-6.76h7.07v6.76ZM1862.77,326.41h-7.07v-6.78h7.07v6.78ZM1862.77,309.73h-7.07v-6.76h7.07v6.76ZM1862.77,301.22h-7.07v-6.76h7.07v6.76ZM1862.77,284.55h-7.07v-6.78h7.07v6.78ZM1862.77,276.03h-7.07v-6.76h7.07v6.76ZM1862.77,259.36h-7.07v-6.78h7.07v6.78ZM1862.77,250.84h-7.07v-6.76h7.07v6.76ZM1883.48,309.73v-6.76h6.22v6.76h-6.22ZM1889.7,319.64v6.78h-6.22v-6.78h6.22ZM1883.48,301.22v-6.76h6.22v6.76h-6.22ZM1883.48,284.55v-6.78h6.22v6.78h-6.22ZM1883.48,276.03v-6.76h6.22v6.76h-6.22ZM1883.48,259.36v-6.78h6.22v6.78h-6.22ZM1883.48,250.84v-6.76h6.22v6.76h-6.22ZM1875.66,215.91h5.06v3.1h-5.06v-3.1ZM1881.97,334.92h-6.22v-6.76h6.22v6.76ZM1881.97,326.41h-6.22v-6.78h6.22v6.78ZM1881.97,309.73h-6.22v-6.76h6.22v6.76ZM1881.97,301.22h-6.22v-6.76h6.22v6.76ZM1881.97,284.55h-6.22v-6.78h6.22v6.78ZM1881.97,276.03h-6.22v-6.76h6.22v6.76ZM1881.97,259.36h-6.22v-6.78h6.22v6.78ZM1881.97,250.84h-6.22v-6.76h6.22v6.76ZM1883.39,215.91h5.06v3.1h-5.06v-3.1ZM1883.48,328.15h6.22v6.76h-6.22v-6.76ZM1894.85,441.39h-6.27v-16.81h6.27v16.81ZM1894.85,420.34h-6.27v-14.79h6.27v14.79ZM1910.98,215.91h5.07v3.1h-5.07v-3.1ZM1910.4,244.07h6.23v6.76h-6.23v-6.76ZM1910.4,252.58h6.23v6.78h-6.23v-6.78ZM1910.4,269.27h6.23v6.76h-6.23v-6.76ZM1910.4,277.77h6.23v6.78h-6.23v-6.78ZM1910.4,294.46h6.23v6.76h-6.23v-6.76ZM1910.4,302.96h6.23v6.76h-6.23v-6.76ZM1910.4,319.64h6.23v6.78h-6.23v-6.78ZM1910.4,328.15h6.23v6.76h-6.23v-6.76ZM1903.26,215.91h5.06v3.1h-5.06v-3.1ZM1902.68,244.07h6.22v6.76h-6.22v-6.76ZM1902.68,252.58h6.22v6.78h-6.22v-6.78ZM1902.68,269.27h6.22v6.76h-6.22v-6.76ZM1902.68,277.77h6.22v6.78h-6.22v-6.78ZM1902.68,294.46h6.22v6.76h-6.22v-6.76ZM1902.68,302.96h6.22v6.76h-6.22v-6.76ZM1902.68,319.64h6.22v6.78h-6.22v-6.78ZM1902.68,328.15h6.22v6.76h-6.22v-6.76ZM1908.54,441.39h-6.28v-16.81h6.28v16.81ZM1917.06,441.39h-6.28v-16.81h6.28v16.81ZM1917.06,420.34h-14.8v-14.79h14.8v14.79ZM1930.73,441.39h-6.28v-16.81h6.28v16.81ZM1930.73,420.34h-6.28v-14.79h6.28v14.79ZM1935.82,334.92h-6.21v-6.76h6.21v6.76ZM1935.82,326.41h-6.21v-6.78h6.21v6.78ZM1935.82,309.73h-6.21v-6.76h6.21v6.76ZM1935.82,301.22h-6.21v-6.76h6.21v6.76ZM1935.82,284.55h-6.21v-6.78h6.21v6.78ZM1935.82,276.03h-6.21v-6.76h6.21v6.76ZM1935.82,259.36h-6.21v-6.78h6.21v6.78ZM1935.82,250.84h-6.21v-6.76h6.21v6.76ZM1935.92,219.01h-5.06v-3.1h5.06v3.1ZM1943.56,334.92h-6.22v-6.76h6.22v6.76ZM1943.56,326.41h-6.22v-6.78h6.22v6.78ZM1943.56,309.73h-6.22v-6.76h6.22v6.76ZM1943.56,301.22h-6.22v-6.76h6.22v6.76ZM1943.56,284.55h-6.22v-6.78h6.22v6.78ZM1943.56,276.03h-6.22v-6.76h6.22v6.76ZM1943.56,259.36h-6.22v-6.78h6.22v6.78ZM1943.56,250.84h-6.22v-6.76h6.22v6.76ZM1943.66,219.01h-5.06v-3.1h5.06v3.1ZM1962.86,419.94h-5.58v-8.71h5.58v8.71ZM1962.86,379.46h-5.58v-8.71h5.58v8.71ZM1963.61,334.92h-7.07v-6.76h7.07v6.76ZM1963.61,326.41h-7.07v-6.78h7.07v6.78ZM1963.61,309.73h-7.07v-6.76h7.07v6.76ZM1963.61,301.22h-7.07v-6.76h7.07v6.76ZM1963.61,284.55h-7.07v-6.78h7.07v6.78ZM1963.61,276.03h-7.07v-6.76h7.07v6.76ZM1963.61,259.36h-7.07v-6.78h7.07v6.78ZM1963.61,250.84h-7.07v-6.76h7.07v6.76ZM1976.46,250.58h4.11v4.11h-4.11v-4.11ZM1976.46,257.75h4.11v12.43h-4.11v-12.43ZM1976.46,310.6h4.11v12.43h-4.11v-12.43ZM1982.56,419.94h-5.57v-8.71h5.57v8.71ZM1982.56,379.46h-5.57v-8.71h5.57v8.71Z"/>
      <polygon class="cls-3" points="530.68 307.99 466.72 307.99 466.72 380.8 404.25 380.8 404.25 268.02 372.77 268.02 372.77 243.16 345.98 243.16 345.98 233.22 290.2 233.22 290.2 243.16 263.41 243.16 263.41 268.02 231.93 268.02 231.93 396.22 194.56 396.22 194.56 451.42 259.62 451.42 259.62 447.8 404.25 447.8 404.25 446.65 488.91 446.65 488.91 443.54 510.35 443.54 510.35 446.65 586.98 446.65 586.98 399.63 530.68 399.63 530.68 307.99"/>
      <rect class="cls-3" x="2043.55" y="376.88" width="79.75" height="79.75"/>
    </g>
    <path class="cls-2" d="M2199.5,454.18l-1.87-.1c-36.25-1.87-72.5-3.51-108.75-5.04v-10.28l-1.4-3.11v-63.07l-1.71-3.27v-13.31h.7l-2.67-9.19c.3-.09.52-.37.52-.7,0-.4-.32-.73-.73-.73s-.73.32-.73.73c0,.33.22.61.53.7l-2.67,9.19h.7v13.31h-2.02l-30.68-29.12v-37.22l-2.45-2.41v-13.2h-.35v-9.41h.53l-2-6.86c.23-.06.39-.27.39-.52,0-.3-.24-.55-.55-.55s-.55.25-.55.55c0,.25.16.45.39.52l-1.99,6.86h.53v9.41h-1.03v-19.66l.78-.78v-1.79l-3.04-8.14-12.09-78.32c.4-.4.65-.95.65-1.57,0-1-.66-1.85-1.57-2.12v-2.61c1.38-.27,2.47-1.36,2.74-2.74h2.16c.36,0,.65-.29.65-.65s-.29-.65-.65-.65h-2.16c-.27-1.38-1.36-2.47-2.74-2.74v-1.64c0-.36-.29-.65-.65-.65s-.65.29-.65.65v1.64c-1.38.27-2.47,1.36-2.74,2.74h-2.16c-.36,0-.65.29-.65.65s.29.65.65.65h2.16c.27,1.38,1.36,2.47,2.74,2.74v2.61c-.91.27-1.57,1.12-1.57,2.12,0,.62.25,1.17.65,1.57l-12.09,78.32-3.04,8.14v1.79l.78.78v19.66h-1.03v-9.41h.53l-1.99-6.86c.23-.06.39-.27.39-.52,0-.3-.25-.55-.55-.55s-.54.25-.54.55c0,.25.16.45.39.52l-2,6.86h.53v9.41h-.35v13.2l-2.45,2.41v37.22l-30.68,29.12h-2.02v-13.31h.7l-2.67-9.19c.3-.09.53-.37.53-.7,0-.4-.33-.73-.73-.73s-.73.32-.73.73c0,.33.22.61.52.7l-2.67,9.19h.7v13.31l-1.71,3.27v63.07l-1.4,3.11v5.53c-20.54-.68-41.08-1.33-61.62-1.93v-21.79l-1.06-2.29v-118.25l1.06-2.34v-9.6h-1.25v-16.57h-81.56v7.41h-146.7l-.52-87.62c5.5.18,14.28,2.88,19.94,6.15,1.66.96,3.32,2.11,4.92,3.22,2.88,1.98,5.09,3.51,6.52,3.51.28,0,.54-.05.76-.19.61-.35.85-1.14.74-2.39-.18-2.01.15-4.75.49-7.66.59-4.93,1.14-9.6-.61-11.57-1.15-1.3-3.15-1.85-5.68-2.55-3.51-.97-7.88-2.17-11.68-5.97-5.48-5.49-12.97-7.01-15.56-7.39l-.05-7.48c0-.5-.41-.9-.9-.91-.51,0-.92.4-.92.91l-.71,119.94h-146.7v-7.41h-81.56v16.57h-1.25v9.6l1.06,2.34v118.25l-1.06,2.29v12.81c-18.84-.18-37.68-.36-56.52-.56-6.94-.06-13.88-.09-20.82-.15v-3.52l-1.17-2.8v-20.32l1.17-1.63v-2.17h-2.89v-6.95l-1.04-1.53v-53.84l.54-1.9v-2.58h-.86v-4.11l1.98-4.79v-1.62h-3.16v-5.24h-1.17v-14.72l.63-2.07v-1.27h-1.26v-2.44h-10.66v1.27h-51.11v-1.27h-10.66v2.44h-1.26v1.27l.63,2.07v5.69h-91.88l-.22-39.14c2.86-.29,5.47,1.19,7.06,2.1.78.44,1.26.72,1.63.72.13,0,.23-.03.34-.11.31-.22.24-.63.21-.76-.13-.68.13-1.48.39-2.25.38-1.12.85-2.52-.64-3.01-1.22-.41-1.7-1.05-2.48-2.11-.34-.45-.72-.98-1.23-1.57-1.49-1.72-4.27-1.93-5.31-1.95l-.02-2.6c0-.2-.17-.38-.38-.38s-.38.17-.38.38l-.29,50.67h-21.91v-4.06l3.93-6.51-11.93-4.64v-23.54l1.42-4.81-4-7.73v-6.84s.19-1.35-1.62-1.35l-.54-24.11s1.09-1.56,0-2.37h-.54v-2.98l.88-1.9v-3.05h-1.69v-12.33l.88-2.71v-3.66h-5.89v-11.44h-6.58s-1.19-24.86-21.25-31.1v-3.93l.68-.95v-3.3h-1.13v-12.69h.63v-2.58l.34-.91v-2.13h-1.63v-3.36h-.74s.2-6.32-6.01-6.83v-1.04s0-.31-.21-.54c.38-.14.18-.38.12-.97-.06-.62.91-.88,1.18-1.14.29-.26.67.2.93.53.26.35.51-.47.44-.95-.07-.47.34-1.93.06-1.85-.28.08-1.57.36-2.22-.16-.65-.52-.1-2.3-.45-2.93-.36-.63-.43-.9.83-.78,1.27.12,2.24-.84,2.14-1.43-.1-.59-1.26-1.1-2.24-.73-.97.36-1.55-.22-1.65-.64-.1-.41.28-.82.07-1.48-.18-.56-.68-.8-1.14-.49-.46.31-.36,1.07-.22,1.32.14.26.08,1.01-.35.71-.41-.3-1.09-1.4-1.11-1.89-.03-.47-.1-.12.06-.93.16-.82-.4-1.32-.4-1.32-.84-.07-.72.54-.64.81.08.26.34.32.26,1.4-.08,1.1.25,1.59,1,2.35.75.75.63,1.54.53,2.04-.1.49-1.49,2.1-.85,2.34.63.24,1.05-1.16,1.15-.39.19,1.4,1.41,4.36,1.53,4.84.12.47.38.74-.3,1.47-.21.23-.21.36-.11.4-.11.2-.11.39-.11.39v1.04c-6.21.51-6.01,6.83-6.01,6.83h-.74v3.36h-1.63v2.13l.34.91v2.58h.63v12.69h-1.13v3.3l.68.95v3.93c-20.05,6.24-21.25,31.1-21.25,31.1h-6.58v11.44h-5.89v3.66l.88,2.71v12.33h-1.69v3.05l.88,1.9v2.98h-.54c-1.09.81,0,2.37,0,2.37l-.54,24.11c-1.81,0-1.62,1.35-1.62,1.35v6.84l-4,7.73,1.42,4.81v23.54l-11.93,4.64,3.93,6.51v4.06h-25.49l-.2-37.53c4.73-.4,9.47,1.41,12.34,2.51,1.5.57,2.37.9,2.91.9.23,0,.39-.06.52-.18.14-.11.28-.34.19-.73-.16-.7-.03-1.99.08-3.26.19-2.13.37-4.14-.41-4.92-.25-.25-.56-.35-.95-.32-1.86.18-5.06-1.3-7.78-3.57-2.18-1.83-5.76-1.81-6.97-1.75v-1.83c-.01-.2-.18-.38-.39-.38s-.38.17-.38.38l-.29,50.67h-88.3v-5.69l.63-2.07v-1.27h-1.26v-2.44h-10.66v1.27h-51.11v-1.27h-10.66v2.44h-1.26v1.27l.63,2.07v14.72h-1.17v5.24h-3.16v1.62l1.98,4.79v4.11h-.86v2.58l.54,1.9v53.84l-1.04,1.53v6.95h-2.89v2.17l1.17,1.63v20.32l-1.17,2.8v3.56c-2.86.02-5.72.04-8.59.06v9.55h-69.01v-66.14h-8.23v-33.88h-158.32v-26.28h-75.99v26.28h-168.45v33.88h-7.92v66.14h-40.56c-11.59.34-23.17.68-34.76,1.04v-27.68l-3.17-5.64v-63.71l-1.59-3.11v-39.05l-1.68-2.47v-37.38h-2.42v-4.01h-1.54l-2.56-4.01-7.61-62.06.71-2.17v-1.06h-1.01c.74-.36,1.25-1.12,1.25-2,0-1.09-.78-2-1.82-2.19v-4.59h2.37s-.02.09-.02.13c0,.3.24.54.54.54s.52-.22.54-.5h0c.32,0,.59-.26.59-.59s-.26-.59-.59-.59h0c-.02-.28-.25-.5-.54-.5-.3,0-.54.24-.54.54,0,.04,0,.09.02.13h-2.37v-2.09s.09.02.13.02c.3,0,.54-.24.54-.54s-.22-.52-.5-.54h0c0-.33-.26-.59-.59-.59s-.59.26-.59.59h0c-.28.02-.5.25-.5.54s.24.54.54.54c.04,0,.09,0,.13-.02v2.09h-2.37s.02-.09.02-.13c0-.3-.24-.54-.54-.54s-.52.22-.54.5h0c-.32,0-.59.26-.59.59s.26.59.59.59h0c.02.28.25.5.54.5.3,0,.54-.24.54-.54,0-.04,0-.09-.02-.13h2.37v4.59c-1.04.19-1.82,1.1-1.82,2.19,0,.88.51,1.64,1.25,2h-1.01v1.06l.71,2.17-7.61,62.06-2.56,4.01h-1.54v4.01h-2.42v37.38l-1.68,2.47v39.05l-1.59,3.11v1.34l-32.44-21.32v-2.88h-1.34v-3.96h2.26v-.85h-2.26v-2.9h-.85v2.9h-2.26v.85h2.26v3.96h-1.34v2.88l-32.44,21.32v-1.34l-1.59-3.11v-39.05l-1.68-2.47v-37.38h-2.42v-4.01h-1.54l-2.56-4.01-7.61-62.06.71-2.17v-1.06h-1.01c.74-.36,1.25-1.12,1.25-2,0-1.09-.78-2-1.82-2.19v-4.59h2.37s-.02.09-.02.13c0,.3.24.54.54.54s.52-.22.54-.5h0c.32,0,.59-.26.59-.59s-.26-.59-.59-.59h0c-.02-.28-.25-.5-.54-.5-.3,0-.54.24-.54.54,0,.04,0,.09.02.13h-2.37v-2.09s.09.02.13.02c.3,0,.54-.24.54-.54s-.22-.52-.5-.54h0c0-.33-.26-.59-.59-.59s-.59.26-.59.59h0c-.28.02-.5.25-.5.54s.24.54.54.54c.04,0,.09,0,.13-.02v2.09h-2.37s.02-.09.02-.13c0-.3-.24-.54-.54-.54s-.52.22-.54.5h0c-.32,0-.59.26-.59.59s.26.59.59.59h0c.02.28.25.5.54.5.3,0,.54-.24.54-.54,0-.04,0-.09-.02-.13h2.37v4.59c-1.04.19-1.82,1.1-1.82,2.19,0,.88.51,1.64,1.25,2h-1.01v1.06l.71,2.17-7.61,62.06-2.56,4.01h-1.54v4.01h-2.42v37.38l-1.67,2.47v39.05l-1.59,3.11v63.71l-3.17,5.64v33.12c-38.33,1.59-76.67,3.32-115,5.29l-1.97.1c-11,.58-19.83,6.07-20.93,12.95h2220.53c-1.1-6.81-9.8-12.37-21.03-12.95ZM2026.34,166.94c.66.21,1.18.73,1.4,1.4h-1.4v-1.4ZM2026.34,169.63h1.4c-.21.66-.73,1.18-1.4,1.4v-1.4ZM161.7,430.4h-3.88v-14.13s-.09-2.18,1.94-2.88c2.03.71,1.94,2.88,1.94,2.88v14.13ZM161.7,374.07h-3.88v-16.57s-.09-2.18,1.94-2.88c2.03.71,1.94,2.88,1.94,2.88v16.57ZM162.52,337.57h-5.52v-14.7s0-2.99,2.76-4.21c2.75,1.21,2.76,4.16,2.76,4.21v14.7ZM162.81,295.43h-6.08v-19.34c0-.06.01-3.31,3.04-4.64,3.03,1.34,3.04,4.58,3.04,4.64v19.34ZM204.37,369.65s0-9.64,8.29-11.84c8.29,2.2,8.29,11.84,8.29,11.84v21.29h-16.57v-21.29ZM223.24,443.48h-21.16v-19.87s0-8.99,10.58-11.05c10.58,2.06,10.58,11.05,10.58,11.05v19.87ZM267.5,430.4h-3.88v-14.13s-.09-2.18,1.94-2.88c2.03.71,1.94,2.88,1.94,2.88v14.13ZM267.5,374.07h-3.88v-16.57s-.09-2.18,1.94-2.88c2.03.71,1.94,2.88,1.94,2.88v16.57ZM268.31,337.57h-5.51v-14.7s0-2.99,2.76-4.21c2.75,1.21,2.76,4.16,2.76,4.21v14.7ZM268.6,295.43h-6.08v-19.34c0-.06.01-3.31,3.04-4.64,3.03,1.34,3.04,4.58,3.04,4.64v19.34ZM578.05,442.32v-28.46h12.35v28.46h-12.35ZM748.4,387.58h9.18v13.93h-9.18v-13.93ZM748.4,417.03h9.18v15.83h-9.18v-15.83ZM727.82,387.58h9.18v13.93h-9.18v-13.93ZM727.82,417.03h9.18v15.83h-9.18v-15.83ZM706.92,387.58h9.18v13.93h-9.18v-13.93ZM677.16,372.7h9.82v21.21h-9.82v-21.21ZM677.16,416.71h9.82v21.21h-9.82v-21.21ZM659.43,372.7h9.5v21.21h-9.5v-21.21ZM659.43,417.03h9.5v20.9h-9.5v-20.9ZM641.38,372.7h9.5v21.21h-9.5v-21.21ZM623.33,372.7h9.5v21.21h-9.5v-21.21ZM623.33,417.03h9.5v20.9h-9.5v-20.9ZM568.55,329h7.6v-7.28h2.22v7.28h7.92v2.22h-7.92v15.2h-2.22v-15.2h-7.6v-2.22ZM564.12,370.01c0-3.86,4.17-9.85,7.3-12.01,1.02-.71,4.76-2.66,5.83-2.68,1.48-.03,5.74,2.45,6.97,3.46,2.64,2.16,6.18,7.78,6.18,11.23v30.24h-26.28v-30.24ZM522.01,372.7h9.5v21.21h-9.5v-21.21ZM522.01,417.03h9.5v20.9h-9.5v-20.9ZM503.96,372.7h9.5v21.21h-9.5v-21.21ZM503.96,417.03h9.5v20.9h-9.5v-20.9ZM485.59,372.7h9.82v21.21h-9.82v-21.21ZM485.59,416.71h9.82v21.21h-9.82v-21.21ZM467.86,372.7h9.5v21.21h-9.5v-21.21ZM467.86,417.03h9.5v20.9h-9.5v-20.9ZM438.41,387.58h9.18v13.93h-9.18v-13.93ZM417.83,387.58h9.18v13.93h-9.18v-13.93ZM417.83,417.03h9.18v15.83h-9.18v-15.83ZM397.25,387.58h8.87v13.93h-8.87v-13.93ZM397.25,417.03h8.87v15.83h-8.87v-15.83ZM376.35,387.58h9.18v13.93h-9.18v-13.93ZM376.35,417.03h9.18v15.83h-9.18v-15.83ZM564.12,413.86h12.35v28.46h-12.35v-28.46ZM923.28,346.01c2.17,0,3.93,1.76,3.93,3.93s-1.76,3.93-3.93,3.93-3.93-1.77-3.93-3.93,1.77-3.93,3.93-3.93ZM898.37,343.93h8.64v5.37h-8.64v-5.37ZM898.37,350.96h8.64v6.27h-8.64v-6.27ZM882.1,346.01c2.17,0,3.93,1.76,3.93,3.93s-1.76,3.93-3.93,3.93-3.93-1.77-3.93-3.93,1.76-3.93,3.93-3.93ZM886.41,421.58h-8.63v-6.26h8.63v6.26ZM886.41,413.66h-8.63v-5.37h8.63v5.37ZM887.05,395.38h-9.92v-5.37h9.92v5.37ZM887.05,388.35h-9.92v-6.27h9.92v6.27ZM887.05,380.42h-9.92v-5.37h9.92v5.37ZM907,421.58h-8.64v-6.26h8.64v6.26ZM907,413.66h-8.64v-5.37h8.64v5.37ZM907.65,395.38h-9.92v-5.37h9.92v5.37ZM907.65,388.35h-9.92v-6.27h9.92v6.27ZM907.65,380.42h-9.92v-5.37h9.92v5.37ZM927.59,421.58h-8.63v-6.26h8.63v6.26ZM927.59,413.66h-8.63v-5.37h8.63v5.37ZM928.24,395.38h-9.92v-5.37h9.92v5.37ZM928.24,388.35h-9.92v-6.27h9.92v6.27ZM928.24,380.42h-9.92v-5.37h9.92v5.37ZM1019.22,345.44h8.63v5.37h-8.63v-5.37ZM1019.22,352.46h8.63v6.27h-8.63v-6.27ZM996.73,345.44h8.63v5.37h-8.63v-5.37ZM996.73,352.46h8.63v6.27h-8.63v-6.27ZM974.24,345.44h8.64v5.37h-8.64v-5.37ZM974.24,352.46h8.64v6.27h-8.64v-6.27ZM951.75,345.44h8.64v5.37h-8.64v-5.37ZM951.75,352.46h8.64v6.27h-8.64v-6.27ZM960.39,423.09h-8.64v-6.27h8.64v6.27ZM960.39,415.17h-8.64v-5.37h8.64v5.37ZM961.03,396.88h-9.92v-5.37h9.92v5.37ZM961.03,389.85h-9.92v-6.26h9.92v6.26ZM961.03,381.92h-9.92v-5.37h9.92v5.37ZM982.88,423.09h-8.64v-6.27h8.64v6.27ZM982.88,415.17h-8.64v-5.37h8.64v5.37ZM983.52,396.88h-9.92v-5.37h9.92v5.37ZM983.52,389.85h-9.92v-6.26h9.92v6.26ZM983.52,381.92h-9.92v-5.37h9.92v5.37ZM1005.36,423.09h-8.63v-6.27h8.63v6.27ZM1005.36,415.17h-8.63v-5.37h8.63v5.37ZM1006.01,396.88h-9.93v-5.37h9.93v5.37ZM1006.01,389.85h-9.93v-6.26h9.93v6.26ZM1006.01,381.92h-9.93v-5.37h9.93v5.37ZM1027.85,423.09h-8.63v-6.27h8.63v6.27ZM1027.85,415.17h-8.63v-5.37h8.63v5.37ZM1028.5,396.88h-9.93v-5.37h9.93v5.37ZM1028.5,389.85h-9.93v-6.26h9.93v6.26ZM1028.5,381.92h-9.93v-5.37h9.93v5.37ZM1041.71,345.44h8.63v5.37h-8.63v-5.37ZM1041.71,352.46h8.63v6.27h-8.63v-6.27ZM1050.34,423.09h-8.63v-6.27h8.63v6.27ZM1050.34,415.17h-8.63v-5.37h8.63v5.37ZM1050.99,396.88h-9.93v-5.37h9.93v5.37ZM1050.99,389.85h-9.93v-6.26h9.93v6.26ZM1050.99,381.92h-9.93v-5.37h9.93v5.37ZM1113.82,134.66h3.02v12.69h-3.02v-12.69ZM1108.38,134.66h3.77v12.69h-3.77v-12.69ZM1103.69,134.66h3.02v12.69h-3.02v-12.69ZM1110.27,188.44c5.46,0,9.9,4.44,9.9,9.9s-4.44,9.9-9.9,9.9-9.9-4.44-9.9-9.9,4.44-9.9,9.9-9.9ZM1120.68,225.93v25.29h-8.58v-25.29h8.58ZM1099.85,225.93h8.58v25.29h-8.58v-25.29ZM1074.15,424.04h-5.01v-11.56h5.01v11.56ZM1071.64,354.33c-1.95,0-3.51-1.58-3.51-3.52s1.57-3.52,3.51-3.52,3.52,1.58,3.52,3.52-1.58,3.52-3.52,3.52ZM1075.92,251.22h-4.88v-25.29h4.88v25.29ZM1083.41,251.22h-4.88v-25.29h4.88v25.29ZM1100.33,431.7l-9.92.02v-22.44h9.92v22.42ZM1100.33,395.56h-9.92v-5.8h9.92v5.8ZM1100.33,388.23h-9.92v-4.98h9.92v4.98ZM1100.33,358.2h-9.92s0-12.55,9.92-17.72v17.72ZM1116.98,431.69h-6.71s-6.71,0-6.71,0v-22.42h13.43v22.42ZM1116.98,395.56h-13.43v-12.3h13.43v12.3ZM1116.98,358.2h-13.43v-19.01c1.94-.58,4.17-.91,6.71-.91s4.77.33,6.71.91v19.01ZM1130.12,431.71l-9.92-.02v-22.42h9.92v22.44ZM1130.12,395.56h-9.92v-5.8h9.92v5.8ZM1130.12,388.23h-9.92v-4.98h9.92v4.98ZM1120.2,358.2v-17.72c9.91,5.17,9.92,17.72,9.92,17.72h-9.92ZM1142,251.22h-4.88v-25.29h4.88v25.29ZM1144.61,225.93h4.88v25.29h-4.88v-25.29ZM1151.39,424.04h-5.01v-11.56h5.01v11.56ZM1148.89,354.33c-1.94,0-3.52-1.58-3.52-3.52s1.58-3.52,3.52-3.52,3.51,1.58,3.51,3.52-1.57,3.52-3.51,3.52ZM1170.19,345.44h8.63v5.37h-8.63v-5.37ZM1170.19,352.46h8.63v6.27h-8.63v-6.27ZM1178.82,423.09h-8.63v-6.27h8.63v6.27ZM1178.82,415.17h-8.63v-5.37h8.63v5.37ZM1179.47,396.88h-9.93v-5.37h9.93v5.37ZM1179.47,389.85h-9.93v-6.26h9.93v6.26ZM1179.47,381.92h-9.93v-5.37h9.93v5.37ZM1260.14,345.44h8.64v5.37h-8.64v-5.37ZM1260.14,352.46h8.64v6.27h-8.64v-6.27ZM1237.65,345.44h8.64v5.37h-8.64v-5.37ZM1237.65,352.46h8.64v6.27h-8.64v-6.27ZM1215.17,345.44h8.63v5.37h-8.63v-5.37ZM1215.17,352.46h8.63v6.27h-8.63v-6.27ZM1192.68,345.44h8.63v5.37h-8.63v-5.37ZM1192.68,352.46h8.63v6.27h-8.63v-6.27ZM1201.31,423.09h-8.63v-6.27h8.63v6.27ZM1201.31,415.17h-8.63v-5.37h8.63v5.37ZM1201.96,396.88h-9.93v-5.37h9.93v5.37ZM1201.96,389.85h-9.93v-6.26h9.93v6.26ZM1201.96,381.92h-9.93v-5.37h9.93v5.37ZM1223.8,423.09h-8.63v-6.27h8.63v6.27ZM1223.8,415.17h-8.63v-5.37h8.63v5.37ZM1224.45,396.88h-9.93v-5.37h9.93v5.37ZM1224.45,389.85h-9.93v-6.26h9.93v6.26ZM1224.45,381.92h-9.93v-5.37h9.93v5.37ZM1246.29,423.09h-8.64v-6.27h8.64v6.27ZM1246.29,415.17h-8.64v-5.37h8.64v5.37ZM1246.93,396.88h-9.92v-5.37h9.92v5.37ZM1246.93,389.85h-9.92v-6.26h9.92v6.26ZM1246.93,381.92h-9.92v-5.37h9.92v5.37ZM1268.78,423.09h-8.64v-6.27h8.64v6.27ZM1268.78,415.17h-8.64v-5.37h8.64v5.37ZM1269.42,396.88h-9.92v-5.37h9.92v5.37ZM1269.42,389.85h-9.92v-6.26h9.92v6.26ZM1269.42,381.92h-9.92v-5.37h9.92v5.37ZM1338.43,346.01c2.17,0,3.93,1.76,3.93,3.93s-1.76,3.93-3.93,3.93-3.93-1.77-3.93-3.93,1.76-3.93,3.93-3.93ZM1313.53,343.93h8.64v5.37h-8.64v-5.37ZM1313.53,350.96h8.64v6.27h-8.64v-6.27ZM1297.25,346.01c2.16,0,3.93,1.76,3.93,3.93s-1.77,3.93-3.93,3.93-3.93-1.77-3.93-3.93,1.76-3.93,3.93-3.93ZM1301.57,421.58h-8.63v-6.26h8.63v6.26ZM1301.57,413.66h-8.63v-5.37h8.63v5.37ZM1302.21,395.38h-9.92v-5.37h9.92v5.37ZM1302.21,388.35h-9.92v-6.27h9.92v6.27ZM1302.21,380.42h-9.92v-5.37h9.92v5.37ZM1322.16,421.58h-8.64v-6.26h8.64v6.26ZM1322.16,413.66h-8.64v-5.37h8.64v5.37ZM1322.81,395.38h-9.92v-5.37h9.92v5.37ZM1322.81,388.35h-9.92v-6.27h9.92v6.27ZM1322.81,380.42h-9.92v-5.37h9.92v5.37ZM1342.75,421.58h-8.63v-6.26h8.63v6.26ZM1342.75,413.66h-8.63v-5.37h8.63v5.37ZM1343.4,395.38h-9.92v-5.37h9.92v5.37ZM1343.4,388.35h-9.92v-6.27h9.92v6.27ZM1343.4,380.42h-9.92v-5.37h9.92v5.37ZM1486.35,315.56h3.22v2.55h-3.22v-2.55ZM1492.58,396.44v13.2h-6.08v-13.2h6.08ZM1486.35,319.39h3.22v10.29h-3.22v-10.29ZM1486.35,330.96h3.22v2.56h-3.22v-2.56ZM1486.35,334.8h3.22v10.29h-3.22v-10.29ZM1486.35,346.37h3.22v2.56h-3.22v-2.56ZM1486.35,350.21h3.22v10.29h-3.22v-10.29ZM1486.35,361.78h3.22v2.55h-3.22v-2.55ZM1481.23,315.56h4.17v2.55h-4.17v-2.55ZM1481.23,319.39h4.17v10.29h-4.17v-10.29ZM1481.23,330.96h4.17v2.56h-4.17v-2.56ZM1481.23,334.8h4.17v10.29h-4.17v-10.29ZM1481.23,346.37h4.17v2.56h-4.17v-2.56ZM1481.23,350.21h4.17v10.29h-4.17v-10.29ZM1481.23,361.78h4.17v2.55h-4.17v-2.55ZM1483.7,396.44v13.2h-6.08v-13.2h6.08ZM1475.92,315.56h4.17v2.55h-4.17v-2.55ZM1475.92,319.39h4.17v10.29h-4.17v-10.29ZM1475.92,330.96h4.17v2.56h-4.17v-2.56ZM1475.92,334.8h4.17v10.29h-4.17v-10.29ZM1475.92,346.37h4.17v2.56h-4.17v-2.56ZM1475.92,350.21h4.17v10.29h-4.17v-10.29ZM1475.92,361.78h4.17v2.55h-4.17v-2.55ZM1471.75,315.56h3.22v2.55h-3.22v-2.55ZM1471.75,319.39h3.22v10.29h-3.22v-10.29ZM1471.75,330.96h3.22v2.56h-3.22v-2.56ZM1471.75,334.8h3.22v10.29h-3.22v-10.29ZM1471.75,346.37h3.22v2.56h-3.22v-2.56ZM1471.75,350.21h3.22v10.29h-3.22v-10.29ZM1471.75,361.78h3.22v2.55h-3.22v-2.55ZM1474.81,396.44v13.2h-6.08v-13.2h6.08ZM1467.58,315.56h3.22v2.55h-3.22v-2.55ZM1467.58,319.39h3.22v10.29h-3.22v-10.29ZM1467.58,330.96h3.22v2.56h-3.22v-2.56ZM1467.58,334.8h3.22v10.29h-3.22v-10.29ZM1467.58,346.37h3.22v2.56h-3.22v-2.56ZM1467.58,350.21h3.22v10.29h-3.22v-10.29ZM1467.58,361.78h3.22v2.55h-3.22v-2.55ZM1471.3,433.72c-1.01-.01-2.02-.02-3.03-.03v-18.79h3.03v18.82ZM1479.02,433.8c-2.03-.02-4.05-.04-6.08-.07v-18.84h6.08v18.9ZM1488.38,433.92c-2.03-.03-4.05-.05-6.08-.08v-18.94h6.08v19.02ZM1493.05,433.98c-1.01-.01-2.02-.03-3.04-.04v-19.04h3.04v19.08ZM1493.75,364.33h-3.23v-2.55h3.23v2.55ZM1493.75,360.5h-3.23v-10.29h3.23v10.29ZM1493.75,348.93h-3.23v-2.56h3.23v2.56ZM1493.75,345.09h-3.23v-10.29h3.23v10.29ZM1493.75,333.52h-3.23v-2.56h3.23v2.56ZM1493.75,329.68h-3.23v-10.29h3.23v10.29ZM1493.75,318.11h-3.23v-2.55h3.23v2.55ZM1792.64,316.02h4.62v10.32h-4.62v-10.32ZM1792.64,352.96h4.62v10.32h-4.62v-10.32ZM1792.64,392.18h4.62v18.17h-4.62v-18.17ZM1760.58,316.02h4.62v10.32h-4.62v-10.32ZM1760.58,352.96h4.62v10.32h-4.62v-10.32ZM1760.58,392.18h4.62v18.17h-4.62v-18.17ZM1728.52,316.02h4.62v10.32h-4.62v-10.32ZM1728.52,352.96h4.62v10.32h-4.62v-10.32ZM1728.52,392.18h4.62v18.17h-4.62v-18.17ZM1696.46,316.02h4.62v10.32h-4.62v-10.32ZM1696.46,352.96h4.62v10.32h-4.62v-10.32ZM1696.46,392.18h4.62v18.17h-4.62v-18.17ZM1664.41,316.02h4.62v10.32h-4.62v-10.32ZM1664.41,352.96h4.62v10.32h-4.62v-10.32ZM1664.41,392.18h4.62v18.17h-4.62v-18.17ZM1632.35,316.02h4.62v10.32h-4.62v-10.32ZM1632.35,352.96h4.62v10.32h-4.62v-10.32ZM1632.35,392.18h4.62v18.17h-4.62v-18.17ZM1600.29,316.02h4.62v10.32h-4.62v-10.32ZM1600.29,352.96h4.62v10.32h-4.62v-10.32ZM1600.29,392.18h4.62v18.17h-4.62v-18.17ZM1568.24,316.02h4.62v10.32h-4.62v-10.32ZM1568.24,352.96h4.62v10.32h-4.62v-10.32ZM1568.24,392.18h4.62v18.17h-4.62v-18.17ZM1536.18,316.02h4.62v10.32h-4.62v-10.32ZM1536.18,352.96h4.62v10.32h-4.62v-10.32ZM1536.18,392.18h4.62v18.17h-4.62v-18.17ZM1534.63,418.38h-2.32v-5.91h2.32v5.91ZM1534.63,410.36h-2.32v-18.17h2.32v18.17ZM1534.63,390.07h-2.32v-5.91h2.32v5.91ZM1534.63,369.01h-2.32v-3.76h2.32v3.76ZM1534.63,363.28h-2.32v-10.32h2.32v10.32ZM1534.63,350.99h-2.32v-3.76h2.32v3.76ZM1534.63,332.08h-2.32v-3.76h2.32v3.76ZM1534.63,326.34h-2.32v-10.32h2.32v10.32ZM1534.63,314.06h-2.32v-3.77h2.32v3.77ZM1546.88,418.38h-10.7v-5.91h10.7v5.91ZM1546.88,410.36h-4.62v-18.17h4.62v18.17ZM1546.88,390.07h-10.7v-5.91h10.7v5.91ZM1546.88,369.01h-10.7v-3.76h10.7v3.76ZM1546.88,363.28h-4.62v-10.32h4.62v10.32ZM1546.88,350.99h-10.7v-3.76h10.7v3.76ZM1546.88,332.08h-10.7v-3.76h10.7v3.76ZM1546.88,326.34h-4.62v-10.32h4.62v10.32ZM1546.88,314.06h-10.7v-3.77h10.7v3.77ZM1550.75,418.38h-2.32v-5.91h2.32v5.91ZM1550.75,410.36h-2.32v-18.17h2.32v18.17ZM1550.75,390.07h-2.32v-5.91h2.32v5.91ZM1550.75,369.01h-2.32v-3.76h2.32v3.76ZM1550.75,363.28h-2.32v-10.32h2.32v10.32ZM1550.75,350.99h-2.32v-3.76h2.32v3.76ZM1550.75,332.08h-2.32v-3.76h2.32v3.76ZM1550.75,326.34h-2.32v-10.32h2.32v10.32ZM1550.75,314.06h-2.32v-3.77h2.32v3.77ZM1566.68,418.38h-2.32v-5.91h2.32v5.91ZM1566.68,410.36h-2.32v-18.17h2.32v18.17ZM1566.68,390.07h-2.32v-5.91h2.32v5.91ZM1566.68,369.01h-2.32v-3.76h2.32v3.76ZM1566.68,363.28h-2.32v-10.32h2.32v10.32ZM1566.68,350.99h-2.32v-3.76h2.32v3.76ZM1566.68,332.08h-2.32v-3.76h2.32v3.76ZM1566.68,326.34h-2.32v-10.32h2.32v10.32ZM1566.68,314.06h-2.32v-3.77h2.32v3.77ZM1578.94,418.38h-10.7v-5.91h10.7v5.91ZM1578.94,410.36h-4.62v-18.17h4.62v18.17ZM1578.94,390.07h-10.7v-5.91h10.7v5.91ZM1578.94,369.01h-10.7v-3.76h10.7v3.76ZM1578.94,363.28h-4.62v-10.32h4.62v10.32ZM1578.94,350.99h-10.7v-3.76h10.7v3.76ZM1578.94,332.08h-10.7v-3.76h10.7v3.76ZM1578.94,326.34h-4.62v-10.32h4.62v10.32ZM1578.94,314.06h-10.7v-3.77h10.7v3.77ZM1582.81,418.38h-2.32v-5.91h2.32v5.91ZM1582.81,410.36h-2.32v-18.17h2.32v18.17ZM1582.81,390.07h-2.32v-5.91h2.32v5.91ZM1582.81,369.01h-2.32v-3.76h2.32v3.76ZM1582.81,363.28h-2.32v-10.32h2.32v10.32ZM1582.81,350.99h-2.32v-3.76h2.32v3.76ZM1582.81,332.08h-2.32v-3.76h2.32v3.76ZM1582.81,326.34h-2.32v-10.32h2.32v10.32ZM1582.81,314.06h-2.32v-3.77h2.32v3.77ZM1598.74,418.38h-2.32v-5.91h2.32v5.91ZM1598.74,410.36h-2.32v-18.17h2.32v18.17ZM1598.74,390.07h-2.32v-5.91h2.32v5.91ZM1598.74,369.01h-2.32v-3.76h2.32v3.76ZM1598.74,363.28h-2.32v-10.32h2.32v10.32ZM1598.74,350.99h-2.32v-3.76h2.32v3.76ZM1598.74,332.08h-2.32v-3.76h2.32v3.76ZM1598.74,326.34h-2.32v-10.32h2.32v10.32ZM1598.74,314.06h-2.32v-3.77h2.32v3.77ZM1611,418.38h-10.7v-5.91h10.7v5.91ZM1611,410.36h-4.62v-18.17h4.62v18.17ZM1611,390.07h-10.7v-5.91h10.7v5.91ZM1611,369.01h-10.7v-3.76h10.7v3.76ZM1611,363.28h-4.62v-10.32h4.62v10.32ZM1611,350.99h-10.7v-3.76h10.7v3.76ZM1611,332.08h-10.7v-3.76h10.7v3.76ZM1611,326.34h-4.62v-10.32h4.62v10.32ZM1611,314.06h-10.7v-3.77h10.7v3.77ZM1614.87,418.38h-2.32v-5.91h2.32v5.91ZM1614.87,410.36h-2.32v-18.17h2.32v18.17ZM1614.87,390.07h-2.32v-5.91h2.32v5.91ZM1614.87,369.01h-2.32v-3.76h2.32v3.76ZM1614.87,363.28h-2.32v-10.32h2.32v10.32ZM1614.87,350.99h-2.32v-3.76h2.32v3.76ZM1614.87,332.08h-2.32v-3.76h2.32v3.76ZM1614.87,326.34h-2.32v-10.32h2.32v10.32ZM1614.87,314.06h-2.32v-3.77h2.32v3.77ZM1630.8,418.38h-2.32v-5.91h2.32v5.91ZM1630.8,410.36h-2.32v-18.17h2.32v18.17ZM1630.8,390.07h-2.32v-5.91h2.32v5.91ZM1630.8,369.01h-2.32v-3.76h2.32v3.76ZM1630.8,363.28h-2.32v-10.32h2.32v10.32ZM1630.8,350.99h-2.32v-3.76h2.32v3.76ZM1630.8,332.08h-2.32v-3.76h2.32v3.76ZM1630.8,326.34h-2.32v-10.32h2.32v10.32ZM1630.8,314.06h-2.32v-3.77h2.32v3.77ZM1643.05,418.38h-10.7v-5.91h10.7v5.91ZM1643.05,410.36h-4.62v-18.17h4.62v18.17ZM1643.05,390.07h-10.7v-5.91h10.7v5.91ZM1643.05,369.01h-10.7v-3.76h10.7v3.76ZM1643.05,363.28h-4.62v-10.32h4.62v10.32ZM1643.05,350.99h-10.7v-3.76h10.7v3.76ZM1643.05,332.08h-10.7v-3.76h10.7v3.76ZM1643.05,326.34h-4.62v-10.32h4.62v10.32ZM1643.05,314.06h-10.7v-3.77h10.7v3.77ZM1646.93,418.38h-2.32v-5.91h2.32v5.91ZM1646.93,410.36h-2.32v-18.17h2.32v18.17ZM1646.93,390.07h-2.32v-5.91h2.32v5.91ZM1646.93,369.01h-2.32v-3.76h2.32v3.76ZM1646.93,363.28h-2.32v-10.32h2.32v10.32ZM1646.93,350.99h-2.32v-3.76h2.32v3.76ZM1646.93,332.08h-2.32v-3.76h2.32v3.76ZM1646.93,326.34h-2.32v-10.32h2.32v10.32ZM1646.93,314.06h-2.32v-3.77h2.32v3.77ZM1662.85,418.38h-2.32v-5.91h2.32v5.91ZM1662.85,410.36h-2.32v-18.17h2.32v18.17ZM1662.85,390.07h-2.32v-5.91h2.32v5.91ZM1662.85,369.01h-2.32v-3.76h2.32v3.76ZM1662.85,363.28h-2.32v-10.32h2.32v10.32ZM1662.85,350.99h-2.32v-3.76h2.32v3.76ZM1662.85,332.08h-2.32v-3.76h2.32v3.76ZM1662.85,326.34h-2.32v-10.32h2.32v10.32ZM1662.85,314.06h-2.32v-3.77h2.32v3.77ZM1675.11,418.38h-10.7v-5.91h10.7v5.91ZM1675.11,410.36h-4.62v-18.17h4.62v18.17ZM1675.11,390.07h-10.7v-5.91h10.7v5.91ZM1675.11,369.01h-10.7v-3.76h10.7v3.76ZM1675.11,363.28h-4.62v-10.32h4.62v10.32ZM1675.11,350.99h-10.7v-3.76h10.7v3.76ZM1675.11,332.08h-10.7v-3.76h10.7v3.76ZM1675.11,326.34h-4.62v-10.32h4.62v10.32ZM1675.11,314.06h-10.7v-3.77h10.7v3.77ZM1678.98,418.38h-2.32v-5.91h2.32v5.91ZM1678.98,410.36h-2.32v-18.17h2.32v18.17ZM1678.98,390.07h-2.32v-5.91h2.32v5.91ZM1678.98,369.01h-2.32v-3.76h2.32v3.76ZM1678.98,363.28h-2.32v-10.32h2.32v10.32ZM1678.98,350.99h-2.32v-3.76h2.32v3.76ZM1678.98,332.08h-2.32v-3.76h2.32v3.76ZM1678.98,326.34h-2.32v-10.32h2.32v10.32ZM1678.98,314.06h-2.32v-3.77h2.32v3.77ZM1694.91,418.38h-2.32v-5.91h2.32v5.91ZM1694.91,410.36h-2.32v-18.17h2.32v18.17ZM1694.91,390.07h-2.32v-5.91h2.32v5.91ZM1694.91,369.01h-2.32v-3.76h2.32v3.76ZM1694.91,363.28h-2.32v-10.32h2.32v10.32ZM1694.91,350.99h-2.32v-3.76h2.32v3.76ZM1694.91,332.08h-2.32v-3.76h2.32v3.76ZM1694.91,326.34h-2.32v-10.32h2.32v10.32ZM1694.91,314.06h-2.32v-3.77h2.32v3.77ZM1707.17,418.38h-10.7v-5.91h10.7v5.91ZM1707.17,410.36h-4.62v-18.17h4.62v18.17ZM1707.17,390.07h-10.7v-5.91h10.7v5.91ZM1707.17,369.01h-10.7v-3.76h10.7v3.76ZM1707.17,363.28h-4.62v-10.32h4.62v10.32ZM1707.17,350.99h-10.7v-3.76h10.7v3.76ZM1707.17,332.08h-10.7v-3.76h10.7v3.76ZM1707.17,326.34h-4.62v-10.32h4.62v10.32ZM1707.17,314.06h-10.7v-3.77h10.7v3.77ZM1711.04,418.38h-2.32v-5.91h2.32v5.91ZM1711.04,410.36h-2.32v-18.17h2.32v18.17ZM1711.04,390.07h-2.32v-5.91h2.32v5.91ZM1711.04,369.01h-2.32v-3.76h2.32v3.76ZM1711.04,363.28h-2.32v-10.32h2.32v10.32ZM1711.04,350.99h-2.32v-3.76h2.32v3.76ZM1711.04,332.08h-2.32v-3.76h2.32v3.76ZM1711.04,326.34h-2.32v-10.32h2.32v10.32ZM1711.04,314.06h-2.32v-3.77h2.32v3.77ZM1726.97,418.38h-2.32v-5.91h2.32v5.91ZM1726.97,410.36h-2.32v-18.17h2.32v18.17ZM1726.97,390.07h-2.32v-5.91h2.32v5.91ZM1726.97,369.01h-2.32v-3.76h2.32v3.76ZM1726.97,363.28h-2.32v-10.32h2.32v10.32ZM1726.97,350.99h-2.32v-3.76h2.32v3.76ZM1726.97,332.08h-2.32v-3.76h2.32v3.76ZM1726.97,326.34h-2.32v-10.32h2.32v10.32ZM1726.97,314.06h-2.32v-3.77h2.32v3.77ZM1739.23,418.38h-10.7v-5.91h10.7v5.91ZM1739.23,410.36h-4.62v-18.17h4.62v18.17ZM1739.23,390.07h-10.7v-5.91h10.7v5.91ZM1739.23,369.01h-10.7v-3.76h10.7v3.76ZM1739.23,363.28h-4.62v-10.32h4.62v10.32ZM1739.23,350.99h-10.7v-3.76h10.7v3.76ZM1739.23,332.08h-10.7v-3.76h10.7v3.76ZM1739.23,326.34h-4.62v-10.32h4.62v10.32ZM1739.23,314.06h-10.7v-3.77h10.7v3.77ZM1743.1,418.38h-2.32v-5.91h2.32v5.91ZM1743.1,410.36h-2.32v-18.17h2.32v18.17ZM1743.1,390.07h-2.32v-5.91h2.32v5.91ZM1743.1,369.01h-2.32v-3.76h2.32v3.76ZM1743.1,363.28h-2.32v-10.32h2.32v10.32ZM1743.1,350.99h-2.32v-3.76h2.32v3.76ZM1743.1,332.08h-2.32v-3.76h2.32v3.76ZM1743.1,326.34h-2.32v-10.32h2.32v10.32ZM1743.1,314.06h-2.32v-3.77h2.32v3.77ZM1759.02,418.38h-2.32v-5.91h2.32v5.91ZM1759.02,410.36h-2.32v-18.17h2.32v18.17ZM1759.02,390.07h-2.32v-5.91h2.32v5.91ZM1759.02,369.01h-2.32v-3.76h2.32v3.76ZM1759.02,363.28h-2.32v-10.32h2.32v10.32ZM1759.02,350.99h-2.32v-3.76h2.32v3.76ZM1759.02,332.08h-2.32v-3.76h2.32v3.76ZM1759.02,326.34h-2.32v-10.32h2.32v10.32ZM1759.02,314.06h-2.32v-3.77h2.32v3.77ZM1771.28,418.38h-10.7v-5.91h10.7v5.91ZM1771.28,410.36h-4.62v-18.17h4.62v18.17ZM1771.28,390.07h-10.7v-5.91h10.7v5.91ZM1771.28,369.01h-10.7v-3.76h10.7v3.76ZM1771.28,363.28h-4.62v-10.32h4.62v10.32ZM1771.28,350.99h-10.7v-3.76h10.7v3.76ZM1771.28,332.08h-10.7v-3.76h10.7v3.76ZM1771.28,326.34h-4.62v-10.32h4.62v10.32ZM1771.28,314.06h-10.7v-3.77h10.7v3.77ZM1775.15,418.38h-2.32v-5.91h2.32v5.91ZM1775.15,410.36h-2.32v-18.17h2.32v18.17ZM1775.15,390.07h-2.32v-5.91h2.32v5.91ZM1775.15,369.01h-2.32v-3.76h2.32v3.76ZM1775.15,363.28h-2.32v-10.32h2.32v10.32ZM1775.15,350.99h-2.32v-3.76h2.32v3.76ZM1775.15,332.08h-2.32v-3.76h2.32v3.76ZM1775.15,326.34h-2.32v-10.32h2.32v10.32ZM1775.15,314.06h-2.32v-3.77h2.32v3.77ZM1791.08,418.38h-2.32v-5.91h2.32v5.91ZM1791.08,410.36h-2.32v-18.17h2.32v18.17ZM1791.08,390.07h-2.32v-5.91h2.32v5.91ZM1791.08,369.01h-2.32v-3.76h2.32v3.76ZM1791.08,363.28h-2.32v-10.32h2.32v10.32ZM1791.08,350.99h-2.32v-3.76h2.32v3.76ZM1791.08,332.08h-2.32v-3.76h2.32v3.76ZM1791.08,326.34h-2.32v-10.32h2.32v10.32ZM1791.08,314.06h-2.32v-3.77h2.32v3.77ZM1803.34,418.38h-10.7v-5.91h10.7v5.91ZM1803.34,410.36h-4.62v-18.17h4.62v18.17ZM1803.34,390.07h-10.7v-5.91h10.7v5.91ZM1803.34,369.01h-10.7v-3.76h10.7v3.76ZM1803.34,363.28h-4.62v-10.32h4.62v10.32ZM1803.34,350.99h-10.7v-3.76h10.7v3.76ZM1803.34,332.08h-10.7v-3.76h10.7v3.76ZM1803.34,326.34h-4.62v-10.32h4.62v10.32ZM1803.34,314.06h-10.7v-3.77h10.7v3.77ZM1807.21,418.38h-2.32v-5.91h2.32v5.91ZM1807.21,410.36h-2.32v-18.17h2.32v18.17ZM1807.21,390.07h-2.32v-5.91h2.32v5.91ZM1807.21,369.01h-2.32v-3.76h2.32v3.76ZM1807.21,363.28h-2.32v-10.32h2.32v10.32ZM1807.21,350.99h-2.32v-3.76h2.32v3.76ZM1807.21,332.08h-2.32v-3.76h2.32v3.76ZM1807.21,326.34h-2.32v-10.32h2.32v10.32ZM1807.21,314.06h-2.32v-3.77h2.32v3.77ZM1864.55,315.56h3.22v2.55h-3.22v-2.55ZM1870.79,396.44v13.2h-6.08v-13.2h6.08ZM1864.55,319.39h3.22v10.29h-3.22v-10.29ZM1864.55,330.96h3.22v2.56h-3.22v-2.56ZM1864.55,334.8h3.22v10.29h-3.22v-10.29ZM1864.55,346.37h3.22v2.56h-3.22v-2.56ZM1864.55,350.21h3.22v10.29h-3.22v-10.29ZM1864.55,361.78h3.22v2.55h-3.22v-2.55ZM1859.43,315.56h4.17v2.55h-4.17v-2.55ZM1859.43,319.39h4.17v10.29h-4.17v-10.29ZM1859.43,330.96h4.17v2.56h-4.17v-2.56ZM1859.43,334.8h4.17v10.29h-4.17v-10.29ZM1859.43,346.37h4.17v2.56h-4.17v-2.56ZM1859.43,350.21h4.17v10.29h-4.17v-10.29ZM1859.43,361.78h4.17v2.55h-4.17v-2.55ZM1861.9,396.44v13.2h-6.08v-13.2h6.08ZM1854.12,315.56h4.17v2.55h-4.17v-2.55ZM1854.12,319.39h4.17v10.29h-4.17v-10.29ZM1854.12,330.96h4.17v2.56h-4.17v-2.56ZM1854.12,334.8h4.17v10.29h-4.17v-10.29ZM1854.12,346.37h4.17v2.56h-4.17v-2.56ZM1854.12,350.21h4.17v10.29h-4.17v-10.29ZM1854.12,361.78h4.17v2.55h-4.17v-2.55ZM1849.95,315.56h3.22v2.55h-3.22v-2.55ZM1849.95,319.39h3.22v10.29h-3.22v-10.29ZM1849.95,330.96h3.22v2.56h-3.22v-2.56ZM1849.95,334.8h3.22v10.29h-3.22v-10.29ZM1849.95,346.37h3.22v2.56h-3.22v-2.56ZM1849.95,350.21h3.22v10.29h-3.22v-10.29ZM1849.95,361.78h3.22v2.55h-3.22v-2.55ZM1853.01,396.44v13.2h-6.08v-13.2h6.08ZM1845.77,315.56h3.23v2.55h-3.23v-2.55ZM1845.77,319.39h3.23v10.29h-3.23v-10.29ZM1845.77,330.96h3.23v2.56h-3.23v-2.56ZM1845.77,334.8h3.23v10.29h-3.23v-10.29ZM1845.77,346.37h3.23v2.56h-3.23v-2.56ZM1845.77,350.21h3.23v10.29h-3.23v-10.29ZM1845.77,361.78h3.23v2.55h-3.23v-2.55ZM1849.51,435.13h-3.04v-20.23h3.04v20.23ZM1857.22,435.13h-6.08v-20.23h6.08v20.23ZM1866.58,435.13h-6.08v-20.23h6.08v20.23ZM1871.25,435.13h-3.03v-20.23h3.03v20.23ZM1871.94,364.33h-3.22v-2.55h3.22v2.55ZM1871.94,360.5h-3.22v-10.29h3.22v10.29ZM1871.94,348.93h-3.22v-2.56h3.22v2.56ZM1871.94,345.09h-3.22v-10.29h3.22v10.29ZM1871.94,333.52h-3.22v-2.56h3.22v2.56ZM1871.94,329.68h-3.22v-10.29h3.22v10.29ZM1871.94,318.11h-3.22v-2.55h3.22v2.55ZM1993.07,385.32c.9,0,1.63.73,1.63,1.64s-.73,1.63-1.63,1.63-1.63-.73-1.63-1.63.73-1.64,1.63-1.64ZM1985.89,381.61c.11,0,.22.02.32.04-.03-.1-.05-.21-.05-.32,0-.74.6-1.34,1.35-1.34s1.34.6,1.34,1.34c0,.11-.02.22-.05.32.11-.02.21-.04.33-.04.74,0,1.34.6,1.34,1.34s-.6,1.34-1.34,1.34c-.12,0-.22-.02-.33-.04.03.1.05.21.05.32,0,.74-.6,1.35-1.34,1.35s-1.35-.61-1.35-1.35c0-.1.01-.21.05-.32-.1.02-.21.04-.32.04-.75,0-1.34-.6-1.34-1.34s.6-1.34,1.34-1.34ZM1989.7,392.83v18.56h-4.38v-18.56s.08-3.08,2.19-4.26c2.11,1.18,2.19,4.26,2.19,4.26ZM1981.95,385.32c.9,0,1.63.73,1.63,1.64s-.73,1.63-1.63,1.63-1.63-.73-1.63-1.63.73-1.64,1.63-1.64ZM1980.27,394.9s.06-2.73,1.67-3.78c1.6,1.04,1.67,3.78,1.67,3.78v16.49h-3.34v-16.49ZM1993.72,445.31c-4.14-.15-8.28-.27-12.42-.41v-12.67s.5-5.57,6.21-7.8c5.71,2.23,6.21,7.8,6.21,7.8v13.08ZM1994.74,411.39h-3.33v-16.49s.06-2.73,1.67-3.78c1.6,1.04,1.67,3.78,1.67,3.78v16.49ZM2032.35,341.33v21.45h-2.73v-21.45s.13-1.93,1.36-2.34c1.23.41,1.36,2.34,1.36,2.34ZM2030.91,336.06c0,.95-.77,1.71-1.71,1.71s-1.71-.77-1.71-1.71.77-1.71,1.71-1.71,1.71.77,1.71,1.71ZM2025.32,341.33v21.45h-2.73v-21.45s.13-1.93,1.36-2.34c1.23.41,1.36,2.34,1.36,2.34ZM2023.9,326.23c0-.95.77-1.71,1.71-1.71s1.71.77,1.71,1.71-.77,1.71-1.71,1.71-1.71-.77-1.71-1.71ZM2023.4,375.55s.08-2.94,2.29-4.06c2.21,1.12,2.29,4.06,2.29,4.06v17.74h-4.58v-17.74ZM2026.06,362.78v-21.45s.13-1.93,1.36-2.34c1.23.41,1.36,2.34,1.36,2.34v21.45h-2.73ZM2030.17,330.13c0,.95-.77,1.71-1.71,1.71s-1.71-.77-1.71-1.71.77-1.71,1.71-1.71,1.71.77,1.71,1.71ZM2025.04,166.94v1.4h-1.39c.21-.66.73-1.18,1.39-1.4ZM2023.65,169.63h1.39v1.4c-.66-.21-1.18-.73-1.39-1.4ZM2023.24,278.83s.23-2.8,2.45-3.27c2.22.47,2.45,3.27,2.45,3.27v20.87h-4.91v-20.87ZM2022.93,328.41c.95,0,1.71.77,1.71,1.71s-.77,1.71-1.71,1.71-1.71-.77-1.71-1.71.77-1.71,1.71-1.71ZM2022.19,334.35c.95,0,1.71.77,1.71,1.71s-.77,1.71-1.71,1.71-1.71-.77-1.71-1.71.77-1.71,1.71-1.71ZM2019.03,341.33s.13-1.93,1.36-2.34c1.23.41,1.36,2.34,1.36,2.34v21.45h-2.73v-21.45ZM2015.43,278.83s.17-2.8,1.77-3.27c1.6.47,1.77,3.27,1.77,3.27v20.87h-3.54v-20.87ZM2016.52,377.54s.08-2.61,2.04-3.61c1.96,1,2.04,3.61,2.04,3.61v15.75h-4.07v-15.75ZM2034.37,446.85c-5.79-.22-11.58-.44-17.36-.65v-20.83s.7-7.79,8.68-10.9c7.98,3.11,8.68,10.9,8.68,10.9v21.48ZM2034.86,393.29h-4.07v-15.75s.08-2.61,2.04-3.61c1.96,1,2.04,3.61,2.04,3.61v15.75ZM2035.95,299.7h-3.54v-20.87s.17-2.8,1.77-3.27c1.6.47,1.77,3.27,1.77,3.27v20.87ZM2069.44,385.32c.9,0,1.64.73,1.64,1.64s-.73,1.63-1.64,1.63-1.63-.73-1.63-1.63.73-1.64,1.63-1.64ZM2062.25,381.61c.12,0,.22.02.33.04-.03-.1-.05-.21-.05-.32,0-.74.6-1.34,1.34-1.34s1.35.6,1.35,1.34c0,.11-.01.22-.05.32.1-.02.21-.04.32-.04.75,0,1.34.6,1.34,1.34s-.6,1.34-1.34,1.34c-.11,0-.22-.02-.32-.04.03.1.05.21.05.32,0,.74-.6,1.35-1.35,1.35s-1.34-.61-1.34-1.35c0-.1.02-.21.05-.32-.11.02-.21.04-.33.04-.74,0-1.34-.6-1.34-1.34s.6-1.34,1.34-1.34ZM2066.06,392.83v18.56h-4.38v-18.56s.08-3.08,2.19-4.26c2.11,1.18,2.19,4.26,2.19,4.26ZM2058.31,385.32c.9,0,1.63.73,1.63,1.64s-.73,1.63-1.63,1.63-1.64-.73-1.64-1.63.73-1.64,1.64-1.64ZM2056.64,394.9s.07-2.73,1.67-3.78c1.61,1.04,1.67,3.78,1.67,3.78v16.49h-3.34v-16.49ZM2070.09,448.24c-4.14-.17-8.28-.35-12.42-.51v-15.49s.5-5.57,6.21-7.8c5.71,2.23,6.21,7.8,6.21,7.8v16ZM2071.11,411.39h-3.34v-16.49s.06-2.73,1.67-3.78c1.61,1.04,1.67,3.78,1.67,3.78v16.49Z"/>
  </g>
  <path class="cls-2" d="M1102.97,198.02c0-.17-.14-.31-.31-.31h-1.4c-.17,0-.31.14-.31.31s.14.31.31.31h1.4c.17,0,.31-.14.31-.31Z"/>
  <path class="cls-2" d="M1110.14,205.19c-.17,0-.31.14-.31.31v1.4c0,.17.14.31.31.31s.31-.14.31-.31v-1.4c0-.17-.14-.31-.31-.31Z"/>
  <path class="cls-2" d="M1110.14,191.17c.17,0,.31-.14.31-.31v-1.4c0-.17-.14-.31-.31-.31s-.31.14-.31.31v1.4c0,.17.14.31.31.31Z"/>
  <path class="cls-2" d="M1117.32,198.02c0,.17.14.31.31.31h1.4c.17,0,.31-.14.31-.31s-.14-.31-.31-.31h-1.4c-.17,0-.31.14-.31.31Z"/>
  <path class="cls-2" d="M1106.4,191.69s.05,0,.08-.02c.07-.04.1-.14.06-.21l-.7-1.21c-.04-.07-.14-.1-.21-.06-.07.04-.1.14-.06.21l.7,1.21s.08.08.13.08Z"/>
  <path class="cls-2" d="M1103.58,194.41s.05.02.08.02c.05,0,.11-.03.13-.08.04-.07.02-.17-.06-.21l-1.21-.7c-.07-.04-.17-.02-.21.06-.04.07-.02.17.06.21l1.21.7Z"/>
  <path class="cls-2" d="M1103.8,201.68c-.04-.07-.14-.1-.21-.06l-1.22.7c-.07.04-.1.14-.06.21.03.05.08.08.13.08.03,0,.05,0,.08-.02l1.22-.7c.07-.04.1-.14.06-.21Z"/>
  <path class="cls-2" d="M1106.27,204.42l-.7,1.22c-.04.07-.02.17.06.21.02.01.05.02.08.02.05,0,.1-.03.13-.08l.7-1.22c.04-.07.02-.17-.06-.21-.07-.04-.17-.02-.21.06Z"/>
  <path class="cls-2" d="M1113.81,204.36c-.07.04-.1.14-.06.21l.7,1.21s.08.08.13.08c.03,0,.05,0,.08-.02.07-.04.1-.14.06-.21l-.7-1.21c-.04-.07-.14-.1-.21-.06Z"/>
  <path class="cls-2" d="M1117.76,202.59s.05.02.08.02c.05,0,.11-.03.13-.08.04-.07.02-.17-.06-.21l-1.22-.7c-.07-.04-.17-.02-.21.06-.04.07-.02.17.06.21l1.22.7Z"/>
  <path class="cls-2" d="M1116.7,194.41l1.21-.7c.07-.04.1-.14.06-.21-.04-.07-.14-.1-.21-.06l-1.21.7c-.07.04-.1.14-.06.21.03.05.08.08.13.08.03,0,.05,0,.08-.02Z"/>
  <path class="cls-2" d="M1113.88,191.69c.05,0,.11-.03.13-.08l.7-1.22c.04-.07.02-.17-.06-.21-.07-.04-.17-.02-.21.06l-.7,1.22c-.04.07-.02.17.06.21.02.01.05.02.08.02Z"/>
  <path class="cls-2" d="M1109.53,198.52s.04,0,.06,0c0,.06-.01.13-.02.19,0,.04,0,.08,0,.11.03.31.3.54.61.5.31-.03.54-.3.5-.62,0-.1,0-.19-.02-.29.72-.06,1.45-.1,2.18-.11.55-.02,1.11-.02,1.66-.03.07.02.14.24.21.24.07-.01.14-.02.21-.03.14-.02.28-.06.42-.1.27-.08.55-.17.83-.35.01,0,.03-.02.03-.04.03-.05.01-.11-.03-.14-.28-.17-.56-.27-.83-.34-.14-.04-.28-.07-.42-.1-.07,0-.14-.02-.21-.03-.07,0-.13.23-.21.24-.55,0-1.11,0-1.66-.03-.75-.01-1.5-.06-2.25-.12-.06-.8-.1-1.6-.12-2.41-.01-.6-.02-1.21-.02-1.81,0-.07.24-.15.24-.22,0-.08-.02-.16-.04-.23-.02-.15-.06-.31-.09-.46-.08-.3-.18-.6-.35-.9,0-.02-.02-.03-.04-.04-.05-.03-.11-.01-.13.04-.17.3-.27.6-.35.9-.04.15-.07.31-.1.46-.01.07-.03.15-.03.23,0,.07.22.15.23.22,0,.61,0,1.21-.02,1.81-.01.78-.06,1.55-.12,2.34l-.14-.02s-.08,0-.12,0c-.31.04-.53.32-.5.62.04.31.31.53.62.5Z"/>
</svg>